<?xml version="1.0" encoding="UTF-8" standalone="no"?>
<!DOCTYPE svg PUBLIC "-//W3C//DTD SVG 1.1//EN" "http://www.w3.org/Graphics/SVG/1.1/DTD/svg11.dtd">
<svg width="100%" height="100%" viewBox="0 0 3544 1182" version="1.1" xmlns="http://www.w3.org/2000/svg" xmlns:xlink="http://www.w3.org/1999/xlink" xml:space="preserve" xmlns:serif="http://www.serif.com/" style="fill-rule:evenodd;clip-rule:evenodd;stroke-linecap:round;stroke-linejoin:round;stroke-miterlimit:1.5;">
    <g transform="matrix(1,0,0,1,-596.315,-1561.57)">
        <g transform="matrix(2.0843,0,0,6.48957,-1698.5,-1313.31)">
            <rect x="1101" y="443" width="1700" height="182" style="fill:none;"/>
        </g>
        <g transform="matrix(1.10876,0,0,1.29825,-382.093,848.542)">
            <path d="M3124.16,925.497L1065.82,897.333L1065.82,1114.4L3124.16,1082.72L3124.16,925.497Z" style="fill:none;stroke:rgb(75,74,74);stroke-width:3.45px;"/>
        </g>
        <g transform="matrix(1.10876,0,0,1.10876,-221.152,1422.17)">
            <path d="M2979,566.31C3044.88,566.31 3105.26,542.553 3152.02,503.145C3192.22,506.844 3234.76,509.526 3279,510.896L3299.83,511.59L3300.83,511.619C3321.7,512.228 3342.92,512.5 3364.42,512.5C3387.7,512.5 3410.64,512.181 3433.17,511.446L3454,510.822L3455.17,510.78C3501.37,509.126 3545.67,506.187 3587.33,501.987L3597.31,501.14L3608.17,499.827L3608.64,499.778C3648.92,495.565 3686.49,490.132 3720.67,483.809C3720.67,483.809 3716.95,536.535 3720.67,562.5C3724.83,591.591 3761.62,631.753 3745.67,658.356L3745.85,658.668C3761.33,685.272 3724.82,725.234 3720.67,754.211C3716.95,780.177 3720.67,832.902 3720.67,832.902C3686.49,826.579 3648.92,821.146 3608.64,816.934L3608.17,816.884L3597.31,815.572L3587.33,814.724C3545.67,810.524 3501.37,807.585 3455.17,805.931L3454,805.889L3433.17,805.265C3410.64,804.53 3387.7,804.211 3364.42,804.211C3342.92,804.211 3321.7,804.483 3300.83,805.092L3299.83,805.121L3279,805.815C3234.76,807.185 3192.22,809.867 3152.02,813.567C3105.26,774.158 3044.88,750.401 2979,750.401L2979,566.31Z" style="fill:rgb(223,223,223);stroke:black;stroke-width:3.76px;"/>
        </g>
        <g transform="matrix(4.61981,0,0,4.61981,-4383.78,-551.075)">
            <path d="M1621,585.067C1621.06,582.308 1622.64,581.71 1623.8,578.967C1624.47,577.367 1623.16,572.431 1625,571.127C1626.66,569.95 1633.99,573.497 1642.67,574.127C1652.66,574.852 1663.23,573.351 1671.55,575.077C1675.94,575.986 1678.9,578.178 1681,580.232C1683.15,582.343 1686,582.116 1686,585.132L1686,585.179C1685.99,588.204 1683.14,587.93 1681,590.032C1678.9,592.086 1675.94,594.278 1671.55,595.188C1663.23,596.914 1652.66,595.413 1642.67,596.138C1633.99,596.767 1626.66,600.315 1625,599.138C1623.16,597.833 1624.47,592.897 1623.8,591.298C1622.63,588.532 1621.04,587.947 1621,585.132L1621,585.067Z" style="fill:none;stroke:black;stroke-width:0.23px;"/>
        </g>
        <g transform="matrix(4.61981,0,0,4.61981,-2951.65,-398.036)">
            <path d="M1383,514L1378,514L1378,516.615L1383,516.782L1383,514Z" style="fill:rgb(177,177,177);stroke:rgb(72,72,72);stroke-width:0.9px;"/>
        </g>
        <g transform="matrix(4.61981,0,0,-4.61981,-2951.65,4702.29)">
            <path d="M1383,514L1378,514L1378,516.615L1383,516.782L1383,514Z" style="fill:rgb(177,177,177);stroke:rgb(72,72,72);stroke-width:0.9px;"/>
        </g>
        <g transform="matrix(4.61981,0,0,11.2634,-2780.71,-3814.62)">
            <path d="M1383,515.226L1383,514L1378,514L1378,515.287L1383,515.226Z" style="fill:rgb(177,177,177);stroke:rgb(72,72,72);stroke-width:0.48px;"/>
        </g>
        <g transform="matrix(4.61981,0,0,-11.2634,-2780.71,8118.87)">
            <path d="M1383,515.226L1383,514L1378,514L1378,515.287L1383,515.226Z" style="fill:rgb(177,177,177);stroke:rgb(72,72,72);stroke-width:0.48px;"/>
        </g>
        <g transform="matrix(4.61981,0,0,4.61981,-2609.78,-404.461)">
            <path d="M1383,515.349L1383,514L1378,514L1378,515.868L1380.39,515.664L1383,515.349Z" style="fill:rgb(177,177,177);stroke:rgb(72,72,72);stroke-width:0.9px;"/>
        </g>
        <g transform="matrix(4.61981,0,0,-4.61981,-2609.78,4708.71)">
            <path d="M1383,515.349L1383,514L1378,514L1378,515.868L1380.39,515.664L1383,515.349Z" style="fill:rgb(177,177,177);stroke:rgb(72,72,72);stroke-width:0.9px;"/>
        </g>
        <g transform="matrix(4.61981,0,0,4.61981,-2949.34,-398.036)">
            <path d="M1376.49,514C1375.12,513.996 1374,512.877 1374,511.5C1374,510.12 1375.12,509 1376.5,509L1383.52,509C1384.89,509.009 1386,510.126 1386,511.5C1386,512.88 1384.88,514 1383.5,514L1376.5,514L1376.49,514Z" style="fill:rgb(177,177,177);stroke:rgb(72,72,72);stroke-width:0.9px;"/>
        </g>
        <g transform="matrix(4.61981,0,0,-4.61981,-2949.34,4702.29)">
            <path d="M1376.49,514C1375.12,513.996 1374,512.877 1374,511.5C1374,510.12 1375.12,509 1376.5,509L1383.52,509C1384.89,509.009 1386,510.126 1386,511.5C1386,512.88 1384.88,514 1383.5,514L1376.5,514L1376.49,514Z" style="fill:rgb(177,177,177);stroke:rgb(72,72,72);stroke-width:0.9px;"/>
        </g>
        <g transform="matrix(4.61981,0,0,4.61981,-2778.4,-399.841)">
            <path d="M1376.49,514C1375.12,513.996 1374,512.877 1374,511.5C1374,510.12 1375.12,509 1376.5,509L1383.52,509C1384.89,509.009 1386,510.126 1386,511.5C1386,512.88 1384.88,514 1383.5,514L1376.5,514L1376.49,514Z" style="fill:rgb(177,177,177);stroke:rgb(72,72,72);stroke-width:0.9px;"/>
        </g>
        <g transform="matrix(4.61981,0,0,-4.61981,-2778.4,4704.09)">
            <path d="M1376.49,514C1375.12,513.996 1374,512.877 1374,511.5C1374,510.12 1375.12,509 1376.5,509L1383.52,509C1384.89,509.009 1386,510.126 1386,511.5C1386,512.88 1384.88,514 1383.5,514L1376.5,514L1376.49,514Z" style="fill:rgb(177,177,177);stroke:rgb(72,72,72);stroke-width:0.9px;"/>
        </g>
        <g transform="matrix(4.61981,0,0,4.61981,-2607.47,-404.461)">
            <path d="M1376.49,514C1375.12,513.996 1374,512.877 1374,511.5C1374,510.12 1375.12,509 1376.5,509L1383.52,509C1384.89,509.009 1386,510.126 1386,511.5C1386,512.88 1384.88,514 1383.5,514L1376.5,514L1376.49,514Z" style="fill:rgb(177,177,177);stroke:rgb(72,72,72);stroke-width:0.9px;"/>
        </g>
        <g transform="matrix(4.61981,0,0,-4.61981,-2607.47,4708.71)">
            <path d="M1376.49,514C1375.12,513.996 1374,512.877 1374,511.5C1374,510.12 1375.12,509 1376.5,509L1383.52,509C1384.89,509.009 1386,510.126 1386,511.5C1386,512.88 1384.88,514 1383.5,514L1376.5,514L1376.49,514Z" style="fill:rgb(177,177,177);stroke:rgb(72,72,72);stroke-width:0.9px;"/>
        </g>
        <g transform="matrix(4.61981,0,0,4.61981,-2794.57,-402.655)">
            <circle cx="1373" cy="532" r="6" style="fill:none;stroke:rgb(72,72,72);stroke-width:0.9px;"/>
        </g>
        <g transform="matrix(4.61981,0,0,-4.61981,-2794.57,4706.91)">
            <circle cx="1373" cy="532" r="6" style="fill:none;stroke:rgb(72,72,72);stroke-width:0.9px;"/>
        </g>
        <g transform="matrix(4.61981,0,0,4.61981,-2623.64,-411.895)">
            <circle cx="1373" cy="532" r="6" style="fill:none;stroke:rgb(72,72,72);stroke-width:0.9px;"/>
        </g>
        <g transform="matrix(4.61981,0,0,-4.61981,-2623.64,4716.15)">
            <circle cx="1373" cy="532" r="6" style="fill:none;stroke:rgb(72,72,72);stroke-width:0.9px;"/>
        </g>
        <path d="M840.456,2014.17L799.642,2013.51L799.642,2295.32L840.456,2294.57L840.456,2014.17ZM857.658,2014.45L857.658,2294.26L889.232,2293.68L889.232,2014.96L857.658,2014.45ZM906.435,2015.24L906.435,2293.37L945.379,2292.66L945.379,2015.87L906.435,2015.24ZM962.581,2016.14L962.581,2292.35L1001.52,2291.64L1001.52,2016.78L962.581,2016.14ZM1018.73,2017.06L1018.73,2291.32L1062.29,2290.53L1062.29,2017.76L1018.73,2017.06ZM1079.49,2018.04L1079.49,2290.22L1127.68,2289.34L1127.68,2018.82L1079.49,2018.04ZM1144.88,2019.1L1144.88,2289.03L1193.06,2288.15L1193.06,2019.88L1144.88,2019.1ZM1210.27,2020.16L1210.27,2287.83L1271.03,2286.73L1271.03,2021.14L1210.27,2020.16ZM1288.24,2021.42L1288.24,2286.41L1347.98,2285.33L1347.98,2022.39L1288.24,2021.42ZM1363.14,2022.63L1363.14,2285.05L1423.91,2283.94L1423.91,2023.62L1363.14,2022.63ZM1439.08,2023.86L1439.08,2283.67L1515,2282.28L1515,2025.09L1439.08,2023.86ZM1530.17,2025.34L1530.17,2282.01L1606.1,2280.62L1606.1,2026.57L1530.17,2025.34ZM1621.26,2026.81L1621.26,2280.35L1697.19,2278.96L1697.19,2028.04L1621.26,2026.81ZM1712.35,2028.29L1712.35,2278.69L1803.44,2277.03L1803.44,2029.76L1712.35,2028.29ZM1818.61,2030.01L1818.61,2276.75L1909.7,2275.09L1909.7,2031.48L1818.61,2030.01ZM1924.86,2031.73L1924.86,2274.82L2025.2,2272.99L2025.2,2033.35L1924.86,2031.73ZM2040.36,2033.6L2040.36,2272.71L2148.63,2270.74L2148.63,2035.35L2040.36,2033.6ZM2163.79,2035.6L2163.79,2270.46L2276.68,2268.41L2276.68,2037.43L2163.79,2035.6ZM2291.84,2037.67L2291.84,2268.13L2415.27,2265.88L2415.27,2039.67L2291.84,2037.67ZM2558.49,2041.99L2430.44,2039.92L2430.44,2265.6L2558.49,2263.27L2558.49,2041.99ZM2715.56,2044.53L2573.65,2042.24L2573.65,2262.99L2715.56,2260.41L2715.56,2044.53ZM2877.25,2047.15L2730.72,2044.78L2730.72,2260.13L2877.25,2257.46L2877.25,2047.15ZM3057.43,2050.07L2892.42,2047.4L2892.42,2257.19L3057.43,2254.18L3057.43,2050.07Z" style="fill:none;stroke:rgb(72,72,72);stroke-width:4.17px;"/>
        <g transform="matrix(4.61981,0,0,4.61981,-2949.34,-398.036)">
            <path d="M1377,509C1373.07,505.997 1371.36,499.538 1371,491L1380,490L1389,491C1388.64,499.538 1386.93,505.997 1383,509L1377,509Z" style="fill:rgb(177,177,177);stroke:rgb(72,72,72);stroke-width:0.9px;"/>
        </g>
        <g transform="matrix(4.61981,0,0,-4.61981,-2949.34,4702.29)">
            <path d="M1377,509C1373.07,505.997 1371.36,499.538 1371,491L1380,490L1389,491C1388.64,499.538 1386.93,505.997 1383,509L1377,509Z" style="fill:rgb(177,177,177);stroke:rgb(72,72,72);stroke-width:0.9px;"/>
        </g>
        <g transform="matrix(4.61981,0,0,4.61981,-2778.4,-399.841)">
            <path d="M1377,509C1373.07,505.997 1371.36,499.538 1371,491L1380,490L1389,491C1388.64,499.538 1386.93,505.997 1383,509L1377,509Z" style="fill:rgb(177,177,177);stroke:rgb(72,72,72);stroke-width:0.9px;"/>
        </g>
        <g transform="matrix(4.61981,0,0,-4.61981,-2778.4,4704.09)">
            <path d="M1377,509C1373.07,505.997 1371.36,499.538 1371,491L1380,490L1389,491C1388.64,499.538 1386.93,505.997 1383,509L1377,509Z" style="fill:rgb(177,177,177);stroke:rgb(72,72,72);stroke-width:0.9px;"/>
        </g>
        <g transform="matrix(4.61981,0,0,4.61981,-2607.47,-404.461)">
            <path d="M1377,509C1373.07,505.997 1371.36,499.538 1371,491L1380,490L1389,491C1388.64,499.538 1386.93,505.997 1383,509L1377,509Z" style="fill:rgb(177,177,177);stroke:rgb(72,72,72);stroke-width:0.9px;"/>
        </g>
        <g transform="matrix(4.61981,0,0,-4.61981,-2607.47,4708.71)">
            <path d="M1377,509C1373.07,505.997 1371.36,499.538 1371,491L1380,490L1389,491C1388.64,499.538 1386.93,505.997 1383,509L1377,509Z" style="fill:rgb(177,177,177);stroke:rgb(72,72,72);stroke-width:0.9px;"/>
        </g>
        <g transform="matrix(1.10876,0,0,1.29825,-382.093,848.542)">
            <path d="M3102.15,935.415L1065.82,907.885L1065.82,1102.31L3102.15,1072.5L3102.15,935.415Z" style="fill:none;stroke:rgb(72,72,72);stroke-width:1.9px;"/>
        </g>
        <g transform="matrix(1.10876,0,0,1.29825,-382.093,848.542)">
            <path d="M3102.15,962.832L1065.82,946.77L1065.82,1063.42L3102.15,1045.08L3102.15,962.832Z" style="fill:none;stroke:rgb(72,72,72);stroke-width:1.9px;"/>
        </g>
        <g transform="matrix(1.10876,0,0,1.29825,-382.093,848.542)">
            <path d="M3102.15,990.248L1065.82,985.655L1065.82,1024.54L3102.15,1017.67L3102.15,990.248Z" style="fill:none;stroke:rgb(72,72,72);stroke-width:1.9px;"/>
        </g>
        <g transform="matrix(0.406712,0,0,0.593227,1840.54,1287.6)">
            <g transform="matrix(1,0,0,1,2387,1088)">
                <rect x="605" y="339" width="60" height="60" style="fill:none;stroke:rgb(72,72,72);stroke-width:4.51px;"/>
            </g>
            <g transform="matrix(1,0,0,1,2387,968)">
                <rect x="605" y="339" width="60" height="60" style="fill:none;stroke:rgb(72,72,72);stroke-width:4.51px;"/>
            </g>
            <g transform="matrix(1,0,0,1,2387,1148)">
                <rect x="605" y="339" width="60" height="60" style="fill:none;stroke:rgb(72,72,72);stroke-width:4.51px;"/>
            </g>
            <g transform="matrix(1,0,0,1,2387,1028)">
                <rect x="605" y="339" width="60" height="60" style="fill:none;stroke:rgb(72,72,72);stroke-width:4.51px;"/>
            </g>
            <g transform="matrix(1,0,0,1,2387,1208)">
                <rect x="605" y="339" width="60" height="60" style="fill:none;stroke:rgb(72,72,72);stroke-width:4.51px;"/>
            </g>
        </g>
        <g transform="matrix(1.83337,0,0,1.83337,-2495.16,-68.1151)">
            <circle cx="2803" cy="1211" r="5" style="fill:none;"/>
        </g>
        <g transform="matrix(4.61981,0,0,-4.61981,-2785.33,4706.91)">
            <circle cx="1371" cy="532" r="3" style="fill:none;stroke:rgb(72,72,72);stroke-width:0.9px;"/>
        </g>
        <g transform="matrix(4.61981,0,0,-4.61981,-2614.4,4716.15)">
            <circle cx="1371" cy="532" r="3" style="fill:none;stroke:rgb(72,72,72);stroke-width:0.9px;"/>
        </g>
        <g transform="matrix(4.61981,0,0,4.61981,-2785.33,-402.655)">
            <circle cx="1371" cy="532" r="3" style="fill:none;stroke:rgb(72,72,72);stroke-width:0.9px;"/>
        </g>
        <g transform="matrix(4.61981,0,0,4.61981,-2614.4,-411.895)">
            <circle cx="1371" cy="532" r="3" style="fill:none;stroke:rgb(72,72,72);stroke-width:0.9px;"/>
        </g>
        <g transform="matrix(4.61981,0,0,4.61981,-2965.51,-398.036)">
            <circle cx="1373" cy="532" r="6" style="fill:none;stroke:rgb(72,72,72);stroke-width:0.9px;"/>
        </g>
        <g transform="matrix(4.61981,0,0,4.61981,-2956.27,-398.036)">
            <circle cx="1371" cy="532" r="3" style="fill:none;stroke:rgb(72,72,72);stroke-width:0.9px;"/>
        </g>
        <g transform="matrix(1.10876,0,0,1.10876,-382.093,1018.58)">
            <g transform="matrix(0.961637,0.00475669,0.00475669,0.99941,115.067,-14.2673)">
                <path d="M3124.16,1006.13L3722.44,936.113" style="fill:none;stroke:rgb(75,74,74);stroke-width:1.33px;"/>
            </g>
            <path d="M3124.16,974.026L3544.99,947.333" style="fill:none;stroke:rgb(75,74,74);stroke-width:1.32px;"/>
            <path d="M3124.16,942L3390.82,951.5" style="fill:none;stroke:rgb(75,74,74);stroke-width:1.32px;"/>
        </g>
        <g transform="matrix(4.61981,0,0,-4.61981,-2965.51,4702.29)">
            <circle cx="1373" cy="532" r="6" style="fill:none;stroke:rgb(72,72,72);stroke-width:0.9px;"/>
        </g>
        <g transform="matrix(4.61981,0,0,-4.61981,-2956.27,4702.29)">
            <circle cx="1371" cy="532" r="3" style="fill:none;stroke:rgb(72,72,72);stroke-width:0.9px;"/>
        </g>
        <g transform="matrix(1.10876,0,0,-1.10876,-382.093,3285.67)">
            <g transform="matrix(0.961637,0.00475669,0.00475669,0.99941,115.067,-14.2673)">
                <path d="M3124.16,1006.13L3722.44,936.113" style="fill:none;stroke:rgb(75,74,74);stroke-width:1.33px;"/>
            </g>
            <path d="M3124.16,974.026L3544.99,947.333" style="fill:none;stroke:rgb(75,74,74);stroke-width:1.32px;"/>
            <path d="M3124.16,942L3390.82,951.5" style="fill:none;stroke:rgb(75,74,74);stroke-width:1.32px;"/>
        </g>
        <g transform="matrix(0.544043,0,0,0.544043,2071.25,521.266)">
            <path d="M2689.69,3037.51C2689.69,3041.85 2690.35,3045.08 2691.67,3047.21C2692.99,3049.34 2694.84,3051 2697.23,3052.19L2696.08,3055.39C2695.4,3055.04 2694.5,3054.87 2693.4,3054.87C2692.03,3054.87 2690.61,3055.17 2689.12,3055.77C2687.63,3056.36 2686.29,3057.13 2685.1,3058.07C2683.57,3057.3 2682.12,3056.22 2680.76,3054.81C2679.39,3053.41 2678.37,3051.64 2677.69,3049.51C2674.37,3051.3 2670.45,3052.19 2665.94,3052.19C2662.03,3052.19 2658.3,3051.43 2654.77,3049.89C2651.24,3048.36 2648.36,3046.19 2646.15,3043.38C2643.94,3040.57 2642.83,3037.25 2642.83,3033.42L2642.83,2956.04C2642.83,2950.17 2644.89,2945.57 2649.02,2942.25C2653.15,2938.93 2658.75,2937.27 2665.82,2937.27C2667.35,2937.27 2669.82,2937.44 2673.22,2937.78C2676.37,2938.21 2679.14,2938.42 2681.52,2938.42C2684.67,2938.42 2687.35,2938.03 2689.57,2937.27L2692.25,2942.38C2688.93,2944.76 2686.25,2948.63 2684.2,2954C2682.16,2959.36 2681.14,2964.81 2681.14,2970.34C2681.14,2975.45 2682.08,2979.66 2683.95,2982.98C2685.82,2986.3 2688.59,2987.96 2692.25,2987.96C2690.46,2995.8 2687.14,2999.71 2682.29,2999.71C2678.37,2999.71 2675.43,2998.12 2673.48,2994.92C2671.52,2991.73 2670.54,2987.45 2670.54,2982.09C2670.54,2978.26 2671.05,2974.07 2672.07,2969.51C2673.09,2964.96 2674.5,2960.47 2676.29,2956.04C2676.63,2955.36 2676.8,2954.59 2676.8,2953.74C2676.8,2951.87 2675.92,2950.36 2674.18,2949.21C2672.43,2948.06 2670.07,2947.49 2667.09,2947.49C2663.26,2947.49 2660.39,2948.49 2658.47,2950.49C2656.56,2952.49 2655.6,2955.78 2655.6,2960.38L2655.6,3026.27C2655.6,3035.89 2659.3,3040.7 2666.71,3040.7C2669.6,3040.7 2672.03,3039.95 2673.99,3038.47C2675.95,3036.98 2676.93,3035.08 2676.93,3032.78L2676.93,3017.84C2676.93,3014.86 2676.61,3012.69 2675.97,3011.33C2675.33,3009.97 2673.86,3008.86 2671.56,3008.01C2671.56,3006.65 2671.86,3005.52 2672.45,3004.63C2673.05,3003.73 2673.95,3003.29 2675.14,3003.29C2675.73,3003.29 2676.41,3003.41 2677.18,3003.67C2679.31,3004.43 2681.48,3004.82 2683.69,3004.82C2686.25,3004.82 2688.8,3004.39 2691.35,3003.54L2692.5,3006.73C2691.48,3007.24 2690.76,3007.8 2690.33,3008.39C2689.91,3008.99 2689.69,3009.84 2689.69,3010.95L2689.69,3037.51Z" style="fill:none;fill-rule:nonzero;"/>
            <path d="M2747.03,2962.81C2746.01,2963.32 2745.28,2963.87 2744.86,2964.47C2744.43,2965.06 2744.22,2965.91 2744.22,2967.02L2744.22,3030.23C2744.22,3036.36 2742.43,3041.02 2738.86,3044.21C2735.28,3047.4 2730.34,3049 2724.04,3049C2717.66,3049 2712.7,3047.38 2709.17,3044.15C2705.63,3040.91 2703.87,3036.27 2703.87,3030.23L2703.87,3013.12C2703.87,3009.37 2705.06,3006.31 2707.44,3003.93C2705.06,3003.33 2703.87,3002.05 2703.87,3000.09L2703.87,2967.02C2703.87,2966.09 2703.63,2965.32 2703.16,2964.72C2702.7,2964.13 2701.99,2963.49 2701.06,2962.81C2701.06,2961.62 2701.46,2960.74 2702.27,2960.19C2703.08,2959.64 2704.12,2959.49 2705.4,2959.74C2705.74,2959.83 2706.61,2960.02 2708.02,2960.32C2709.42,2960.62 2710.93,2960.76 2712.55,2960.76C2714.76,2960.76 2716.68,2960.38 2718.3,2959.62L2719.45,2962.81C2718.43,2963.32 2717.7,2963.87 2717.28,2964.47C2716.85,2965.06 2716.64,2965.91 2716.64,2967.02L2716.64,3000.09C2718.43,3000.09 2720,3000.48 2721.36,3001.24C2722.72,3002.01 2723.41,3002.99 2723.41,3004.18C2721.02,3004.18 2719.3,3005.1 2718.23,3006.93C2717.17,3008.76 2716.64,3011.8 2716.64,3016.05L2716.64,3028.83C2716.64,3032.57 2717.28,3035.17 2718.55,3036.61C2719.83,3038.06 2721.66,3038.78 2724.04,3038.78C2726.43,3038.78 2728.26,3038.06 2729.53,3036.61C2730.81,3035.17 2731.45,3032.57 2731.45,3028.83L2731.45,2967.02C2731.45,2966.09 2731.22,2965.32 2730.75,2964.72C2730.28,2964.13 2729.58,2963.49 2728.64,2962.81C2728.64,2961.62 2729.04,2960.74 2729.85,2960.19C2730.66,2959.64 2731.7,2959.49 2732.98,2959.74C2733.32,2959.83 2734.2,2960.02 2735.6,2960.32C2737,2960.62 2738.51,2960.76 2740.13,2960.76C2742.35,2960.76 2744.26,2960.38 2745.88,2959.62L2747.03,2962.81Z" style="fill:none;fill-rule:nonzero;"/>
            <path d="M2770.27,3041.59C2770.27,3042.53 2770.5,3043.3 2770.97,3043.89C2771.44,3044.49 2772.14,3045.13 2773.08,3045.81C2773.08,3047 2772.67,3047.87 2771.86,3048.43C2771.05,3048.98 2770.01,3049.13 2768.74,3048.87C2768.39,3048.79 2767.52,3048.6 2766.12,3048.3C2764.71,3048 2763.2,3047.85 2761.59,3047.85C2759.37,3047.85 2757.46,3048.23 2755.84,3049L2754.69,3045.81C2755.71,3045.3 2756.43,3044.74 2756.86,3044.15C2757.29,3043.55 2757.5,3042.7 2757.5,3041.59L2757.5,2967.02C2757.5,2966.09 2757.26,2965.32 2756.8,2964.72C2756.33,2964.13 2755.63,2963.49 2754.69,2962.81C2754.69,2961.62 2755.09,2960.74 2755.9,2960.19C2756.71,2959.64 2757.75,2959.49 2759.03,2959.74C2759.37,2959.83 2760.24,2960.02 2761.65,2960.32C2763.05,2960.62 2764.56,2960.76 2766.18,2960.76C2768.39,2960.76 2770.31,2960.38 2771.93,2959.62L2773.08,2962.81C2772.05,2963.32 2771.33,2963.87 2770.91,2964.47C2770.48,2965.06 2770.27,2965.91 2770.27,2967.02L2770.27,3041.59Z" style="fill:none;fill-rule:nonzero;"/>
            <path d="M2825.69,2962.81C2825.09,2963.57 2824.54,2965.02 2824.03,2967.15C2823.51,2969.53 2822.71,2971.38 2821.6,2972.7C2820.49,2974.02 2818.37,2974.68 2815.22,2974.68C2813.85,2974.68 2812.36,2974.55 2810.75,2974.3L2809.98,2974.3C2809.21,2974.3 2808.83,2974.73 2808.83,2975.58L2808.83,3041.59C2808.83,3042.53 2809.07,3043.3 2809.53,3043.89C2810,3044.49 2810.7,3045.13 2811.64,3045.81C2811.64,3047 2811.24,3047.87 2810.43,3048.43C2809.62,3048.98 2808.58,3049.13 2807.3,3048.87C2806.96,3048.79 2806.09,3048.6 2804.68,3048.3C2803.28,3048 2801.76,3047.85 2800.15,3047.85C2797.93,3047.85 2796.02,3048.23 2794.4,3049L2793.25,3045.81C2794.27,3045.3 2795,3044.74 2795.42,3044.15C2795.85,3043.55 2796.06,3042.7 2796.06,3041.59L2796.06,2972.39C2796.06,2971.87 2795.93,2971.47 2795.68,2971.17C2795.42,2970.87 2794.74,2970.64 2793.64,2970.47L2793.76,2970.47C2792.23,2970.3 2791.17,2970.21 2790.57,2970.21C2788.53,2970.21 2786.78,2970.64 2785.34,2971.49C2783.89,2972.34 2782.61,2973.75 2781.51,2975.7C2780.65,2975.7 2779.89,2974.83 2779.21,2973.09C2778.53,2971.34 2778.18,2969.49 2778.18,2967.53C2778.18,2965.32 2779.1,2963.47 2780.93,2961.98C2782.76,2960.49 2785.55,2959.74 2789.29,2959.74C2791.25,2959.74 2793.51,2960 2796.06,2960.51L2797.98,2960.89C2804.19,2962.17 2809.43,2962.81 2813.68,2962.81C2818.96,2962.81 2822.37,2961.74 2823.9,2959.62L2825.69,2962.81Z" style="fill:none;fill-rule:nonzero;"/>
            <path d="M2873.32,3041.59C2873.32,3042.53 2873.55,3043.3 2874.02,3043.89C2874.49,3044.49 2875.19,3045.13 2876.12,3045.81C2876.12,3047 2875.72,3047.87 2874.91,3048.43C2874.1,3048.98 2873.06,3049.13 2871.78,3048.87C2871.44,3048.79 2870.57,3048.6 2869.16,3048.3C2867.76,3048 2866.25,3047.85 2864.63,3047.85C2862.42,3047.85 2860.5,3048.23 2858.89,3049L2857.74,3045.81C2858.76,3045.3 2859.48,3044.74 2859.91,3044.15C2860.33,3043.55 2860.55,3042.7 2860.55,3041.59L2860.55,3007.37C2858.16,3006.1 2855.99,3005.46 2854.03,3005.46C2852.08,3005.46 2850.52,3005.99 2849.37,3007.05C2848.22,3008.12 2847.65,3009.54 2847.65,3011.33C2847.65,3012.78 2848.14,3014.03 2849.12,3015.1C2850.1,3016.16 2851.44,3016.69 2853.14,3016.69C2853.14,3018.06 2852.46,3019.1 2851.1,3019.82C2849.74,3020.55 2848.16,3020.82 2846.37,3020.65L2846.37,3041.59C2846.37,3042.53 2846.61,3043.3 2847.08,3043.89C2847.54,3044.49 2848.24,3045.13 2849.18,3045.81C2849.18,3047 2848.78,3047.87 2847.97,3048.43C2847.16,3048.98 2846.12,3049.13 2844.84,3048.87C2844.5,3048.79 2843.63,3048.6 2842.22,3048.3C2840.82,3048 2839.31,3047.85 2837.69,3047.85C2835.48,3047.85 2833.56,3048.23 2831.94,3049L2830.79,3045.81C2831.82,3045.3 2832.54,3044.74 2832.97,3044.15C2833.39,3043.55 2833.6,3042.7 2833.6,3041.59L2833.6,2967.02C2833.6,2966.09 2833.37,2965.32 2832.9,2964.72C2832.43,2964.13 2831.73,2963.49 2830.79,2962.81C2830.79,2961.79 2831.07,2961 2831.62,2960.45C2832.18,2959.89 2832.92,2959.62 2833.86,2959.62C2834.45,2959.62 2834.88,2959.66 2835.14,2959.74C2837.43,2960.25 2839.65,2960.51 2841.78,2960.51C2843.22,2960.51 2844.5,2960.47 2845.61,2960.38C2846.71,2960.3 2847.65,2960.21 2848.41,2960.13C2851.82,2959.79 2854.59,2959.62 2856.72,2959.62C2861.82,2959.62 2865.87,2961.28 2868.85,2964.6C2871.83,2967.91 2873.32,2972.51 2873.32,2978.39L2873.32,3041.59ZM2846.37,2996.65C2848.41,2995.62 2850.67,2995.11 2853.14,2995.11C2855.61,2995.11 2858.08,2995.67 2860.55,2996.77L2860.55,2978.64C2860.55,2975.49 2859.95,2973.24 2858.76,2971.87C2857.57,2970.51 2855.82,2969.83 2853.52,2969.83L2846.37,2969.83L2846.37,2996.65Z" style="fill:none;fill-rule:nonzero;"/>
            <path d="M2916.47,3028.7C2918.35,3031.85 2919.99,3034.19 2921.39,3035.72C2922.8,3037.25 2924.14,3038.25 2925.41,3038.72C2926.69,3039.19 2928.27,3039.42 2930.14,3039.42C2929.29,3043.08 2928.05,3045.98 2926.43,3048.11C2924.82,3050.23 2922.95,3051.3 2920.82,3051.3C2916.99,3051.3 2912.94,3047.72 2908.69,3040.57L2899.37,3024.74L2899.37,3041.59C2899.37,3042.53 2899.6,3043.3 2900.07,3043.89C2900.53,3044.49 2901.24,3045.13 2902.17,3045.81C2902.17,3047 2901.77,3047.87 2900.96,3048.43C2900.15,3048.98 2899.11,3049.13 2897.83,3048.87C2897.49,3048.79 2896.62,3048.6 2895.22,3048.3C2893.81,3048 2892.3,3047.85 2890.68,3047.85C2888.47,3047.85 2886.55,3048.23 2884.93,3049L2883.79,3045.81C2884.81,3045.3 2885.53,3044.74 2885.96,3044.15C2886.38,3043.55 2886.6,3042.7 2886.6,3041.59L2886.6,2967.02C2886.6,2966.09 2886.36,2965.32 2885.89,2964.72C2885.43,2964.13 2884.72,2963.49 2883.79,2962.81C2883.79,2961.79 2884.06,2961 2884.62,2960.45C2885.17,2959.89 2885.91,2959.62 2886.85,2959.62C2887.45,2959.62 2887.87,2959.66 2888.13,2959.74C2890.43,2960.25 2892.64,2960.51 2894.77,2960.51C2896.22,2960.51 2897.49,2960.47 2898.6,2960.38C2899.7,2960.3 2900.64,2960.21 2901.41,2960.13C2904.81,2959.79 2907.58,2959.62 2909.71,2959.62C2914.82,2959.62 2918.86,2961.32 2921.84,2964.72C2924.82,2968.13 2926.31,2972.77 2926.31,2978.64L2926.31,3002.9C2926.31,3008.52 2925.24,3013.18 2923.12,3016.89C2920.99,3020.59 2917.97,3023.16 2914.05,3024.61L2916.47,3028.7ZM2899.37,2969.83L2899.37,3000.22C2901.15,3000.05 2902.73,3000.33 2904.09,3001.05C2905.45,3001.78 2906.13,3002.82 2906.13,3004.18C2904.43,3004.18 2903.09,3004.71 2902.11,3005.78C2901.13,3006.84 2900.64,3008.1 2900.64,3009.54C2900.64,3011.25 2901.2,3012.65 2902.3,3013.76C2903.41,3014.86 2904.81,3015.42 2906.51,3015.42C2908.73,3015.42 2910.45,3014.42 2911.69,3012.42C2912.92,3010.42 2913.54,3006.73 2913.54,3001.37L2913.54,2978.64C2913.54,2975.49 2912.94,2973.24 2911.75,2971.87C2910.56,2970.51 2908.81,2969.83 2906.51,2969.83L2899.37,2969.83Z" style="fill:none;fill-rule:nonzero;"/>
            <path d="M2992.2,2981.2C2997.9,2981.2 3002.09,2982.86 3004.78,2986.18C3007.46,2989.49 3008.8,2994.52 3008.8,3001.24L3008.8,3030.23C3008.8,3036.36 3007.01,3041.02 3003.43,3044.21C2999.86,3047.4 2994.92,3049 2988.62,3049C2982.92,3049 2978.34,3047.36 2974.89,3044.08C2971.45,3040.81 2969.72,3036.19 2969.72,3030.23L2969.72,3019.63C2969.72,3012.31 2970.64,3007.44 2972.47,3005.01C2974.3,3002.58 2976.66,3001.37 2979.55,3001.37C2984.15,3001.37 2987.26,3004.86 2988.88,3011.84C2986.75,3011.84 2985.15,3012.82 2984.09,3014.78C2983.02,3016.74 2982.49,3020.4 2982.49,3025.76C2982.49,3030.7 2982.98,3034.1 2983.96,3035.97C2984.94,3037.85 2986.71,3038.78 2989.26,3038.78C2991.56,3038.78 2993.26,3038.06 2994.37,3036.61C2995.47,3035.17 2996.03,3032.57 2996.03,3028.83L2996.03,3002.65C2996.03,2998.73 2995.62,2995.88 2994.82,2994.09C2994.01,2992.3 2992.15,2991.41 2989.26,2991.41C2987.98,2991.41 2986.75,2991.69 2985.56,2992.24C2984.37,2992.79 2983.39,2993.58 2982.62,2994.6L2971.26,2993.2L2974.96,2971.36C2975.21,2969.83 2975.34,2968.51 2975.34,2967.41C2975.34,2965.02 2974.7,2963.28 2973.43,2962.17L2974.7,2959.62C2976.92,2959.62 2979.85,2959.74 2983.51,2960C2989.98,2960.34 2994.92,2960.51 2998.33,2960.51C3002.75,2960.51 3005.39,2960.21 3006.24,2959.62L3007.52,2962.17L3003.31,2973.79L3002.03,2973.79C3002.03,2972.17 3001.39,2971.11 3000.11,2970.6C2998.84,2970.09 2996.54,2969.83 2993.22,2969.83C2991.09,2969.83 2989.47,2970.04 2988.37,2970.47C2987.26,2970.89 2986.58,2971.75 2986.32,2973.02L2984.79,2982.09C2987.51,2981.49 2989.98,2981.2 2992.2,2981.2Z" style="fill:none;fill-rule:nonzero;"/>
            <path d="M3038.93,2981.2C3044.64,2981.2 3048.83,2982.86 3051.51,2986.18C3054.19,2989.49 3055.53,2994.52 3055.53,3001.24L3055.53,3030.23C3055.53,3036.36 3053.74,3041.02 3050.17,3044.21C3046.59,3047.4 3041.66,3049 3035.36,3049C3029.65,3049 3025.08,3047.36 3021.63,3044.08C3018.18,3040.81 3016.46,3036.19 3016.46,3030.23L3016.46,3019.63C3016.46,3012.31 3017.37,3007.44 3019.2,3005.01C3021.03,3002.58 3023.4,3001.37 3026.29,3001.37C3030.89,3001.37 3033.99,3004.86 3035.61,3011.84C3033.48,3011.84 3031.89,3012.82 3030.82,3014.78C3029.76,3016.74 3029.23,3020.4 3029.23,3025.76C3029.23,3030.7 3029.72,3034.1 3030.7,3035.97C3031.68,3037.85 3033.44,3038.78 3035.99,3038.78C3038.29,3038.78 3040,3038.06 3041.1,3036.61C3042.21,3035.17 3042.76,3032.57 3042.76,3028.83L3042.76,3002.65C3042.76,2998.73 3042.36,2995.88 3041.55,2994.09C3040.74,2992.3 3038.89,2991.41 3035.99,2991.41C3034.72,2991.41 3033.48,2991.69 3032.29,2992.24C3031.1,2992.79 3030.12,2993.58 3029.36,2994.6L3017.99,2993.2L3021.69,2971.36C3021.95,2969.83 3022.08,2968.51 3022.08,2967.41C3022.08,2965.02 3021.44,2963.28 3020.16,2962.17L3021.44,2959.62C3023.65,2959.62 3026.59,2959.74 3030.25,2960C3036.72,2960.34 3041.66,2960.51 3045.06,2960.51C3049.49,2960.51 3052.13,2960.21 3052.98,2959.62L3054.26,2962.17L3050.04,2973.79L3048.76,2973.79C3048.76,2972.17 3048.13,2971.11 3046.85,2970.6C3045.57,2970.09 3043.27,2969.83 3039.95,2969.83C3037.83,2969.83 3036.21,2970.04 3035.1,2970.47C3033.99,2970.89 3033.31,2971.75 3033.06,2973.02L3031.53,2982.09C3034.25,2981.49 3036.72,2981.2 3038.93,2981.2Z" style="fill:none;fill-rule:nonzero;"/>
        </g>
        <g transform="matrix(0.544043,0,0,0.544043,2025.25,521.242)">
            <text x="2639px" y="3049px" style="font-family:'YoungFighterTokyo-Regular', 'Young Fighter Tokyo';font-size:127.692px;">G<tspan x="2697.23px 2750.86px 2774.35px 2826.96px " y="3049px 3049px 3049px 3049px ">uita</tspan>r</text>
            <text x="2965.89px" y="3049px" style="font-family:'STHeitiTC-Medium', 'Heiti TC';font-size:91.905px;">Lib</text>
        </g>
        <g transform="matrix(1.83337,0,0,1.83337,-2785.39,-68.1151)">
            <circle cx="2803" cy="1211" r="5" style="stroke:black;stroke-width:1.25px;"/>
        </g>
        <g transform="matrix(1.83337,0,0,1.83337,-3042.63,-68.1151)">
            <circle cx="2803" cy="1211" r="5" style="stroke:black;stroke-width:1.25px;"/>
        </g>
        <g transform="matrix(1.83337,0,0,1.83337,-3277.68,-68.1151)">
            <circle cx="2803" cy="1211" r="5" style="stroke:black;stroke-width:1.25px;"/>
        </g>
        <g transform="matrix(1.83337,0,0,1.83337,-3570.82,-112.115)">
            <circle cx="2803" cy="1211" r="5" style="stroke:black;stroke-width:1.25px;"/>
        </g>
        <g transform="matrix(1.83337,0,0,1.83337,-3570.82,-20.1151)">
            <circle cx="2803" cy="1211" r="5" style="stroke:black;stroke-width:1.25px;"/>
        </g>
        <g transform="matrix(1.83337,0,0,1.83337,-3822.08,-68.1151)">
            <circle cx="2803" cy="1211" r="5" style="stroke:black;stroke-width:1.25px;"/>
        </g>
        <g transform="matrix(1.83337,0,0,1.83337,-3971.76,-68.1151)">
            <circle cx="2803" cy="1211" r="5" style="stroke:black;stroke-width:1.25px;"/>
        </g>
    </g>
</svg>
