<?xml version="1.0" encoding="UTF-8" standalone="no"?>
<!DOCTYPE svg PUBLIC "-//W3C//DTD SVG 1.1//EN" "http://www.w3.org/Graphics/SVG/1.1/DTD/svg11.dtd">
<svg width="100%" height="100%" viewBox="0 0 3544 1182" version="1.1" xmlns="http://www.w3.org/2000/svg" xmlns:xlink="http://www.w3.org/1999/xlink" xml:space="preserve" xmlns:serif="http://www.serif.com/" style="fill-rule:evenodd;clip-rule:evenodd;stroke-linecap:round;stroke-linejoin:round;stroke-miterlimit:1.5;">
    <g transform="matrix(1,0,0,1,-596.315,-1561.57)">
        <g transform="matrix(2.0843,0,0,6.48957,-1698.5,-1313.31)">
            <rect x="1101" y="443" width="1700" height="182" style="fill:rgb(26,26,26);"/>
        </g>
        <g transform="matrix(1.10876,0,0,1.10876,-382.093,1018.58)">
            <g transform="matrix(0.961637,0.00475669,0.00475669,0.99941,115.067,-14.2673)">
                <path d="M3124.16,1006.13L3722.44,936.113" style="fill:none;stroke:rgb(191,191,191);stroke-width:1.33px;"/>
            </g>
            <path d="M3124.16,974.026L3544.99,947.333" style="fill:none;stroke:rgb(191,191,191);stroke-width:1.32px;"/>
            <path d="M3124.16,942L3390.82,951.5" style="fill:none;stroke:rgb(191,191,191);stroke-width:1.32px;"/>
        </g>
        <g transform="matrix(1.10876,0,0,-1.10876,-382.093,3285.67)">
            <g transform="matrix(0.961637,0.00475669,0.00475669,0.99941,115.067,-14.2673)">
                <path d="M3124.16,1006.13L3722.44,936.113" style="fill:none;stroke:rgb(191,191,191);stroke-width:1.33px;"/>
            </g>
            <path d="M3124.16,974.026L3544.99,947.333" style="fill:none;stroke:rgb(191,191,191);stroke-width:1.32px;"/>
            <path d="M3124.16,942L3390.82,951.5" style="fill:none;stroke:rgb(191,191,191);stroke-width:1.32px;"/>
        </g>
        <g transform="matrix(4.61981,0,0,4.61981,-4383.78,-551.075)">
            <path d="M1621,585.067C1621.06,582.308 1622.64,581.71 1623.8,578.967C1624.47,577.367 1623.16,572.431 1625,571.127C1626.66,569.95 1633.99,573.497 1642.67,574.127C1652.66,574.852 1663.23,573.351 1671.55,575.077C1675.94,575.986 1678.9,578.178 1681,580.232C1683.15,582.343 1686,582.116 1686,585.132L1686,585.179C1685.99,588.204 1683.14,587.93 1681,590.032C1678.9,592.086 1675.94,594.278 1671.55,595.188C1663.23,596.914 1652.66,595.413 1642.67,596.138C1633.99,596.767 1626.66,600.315 1625,599.138C1623.16,597.833 1624.47,592.897 1623.8,591.298C1622.63,588.532 1621.04,587.947 1621,585.132L1621,585.067Z" style="fill:none;stroke:rgb(191,191,191);stroke-width:0.32px;"/>
        </g>
        <g transform="matrix(4.61981,0,0,4.61981,-2951.65,-398.036)">
            <path d="M1383,514L1378,514L1378,516.615L1383,516.782L1383,514Z" style="fill:none;stroke:rgb(191,191,191);stroke-width:0.9px;"/>
        </g>
        <g transform="matrix(4.61981,0,0,-4.61981,-2951.65,4702.29)">
            <path d="M1383,514L1378,514L1378,516.615L1383,516.782L1383,514Z" style="fill:none;stroke:rgb(191,191,191);stroke-width:0.9px;"/>
        </g>
        <g transform="matrix(4.61981,0,0,11.2634,-2780.71,-3814.62)">
            <path d="M1383,515.226L1383,514L1378,514L1378,515.287L1383,515.226Z" style="fill:none;stroke:rgb(191,191,191);stroke-width:0.48px;"/>
        </g>
        <g transform="matrix(4.61981,0,0,-11.2634,-2780.71,8118.87)">
            <path d="M1383,515.226L1383,514L1378,514L1378,515.287L1383,515.226Z" style="fill:none;stroke:rgb(191,191,191);stroke-width:0.48px;"/>
        </g>
        <g transform="matrix(4.61981,0,0,4.61981,-2609.78,-404.461)">
            <path d="M1383,515.349L1383,514L1378,514L1378,515.868L1380.39,515.664L1383,515.349Z" style="fill:none;stroke:rgb(191,191,191);stroke-width:0.9px;"/>
        </g>
        <g transform="matrix(4.61981,0,0,-4.61981,-2609.78,4708.71)">
            <path d="M1383,515.349L1383,514L1378,514L1378,515.868L1380.39,515.664L1383,515.349Z" style="fill:none;stroke:rgb(191,191,191);stroke-width:0.9px;"/>
        </g>
        <g transform="matrix(4.61981,0,0,4.61981,-2949.34,-398.036)">
            <path d="M1376.49,514C1375.12,513.996 1374,512.877 1374,511.5C1374,510.12 1375.12,509 1376.5,509L1383.52,509C1384.89,509.009 1386,510.126 1386,511.5C1386,512.88 1384.88,514 1383.5,514L1376.5,514L1376.49,514Z" style="fill:none;stroke:rgb(191,191,191);stroke-width:0.9px;"/>
        </g>
        <g transform="matrix(4.61981,0,0,-4.61981,-2949.34,4702.29)">
            <path d="M1376.49,514C1375.12,513.996 1374,512.877 1374,511.5C1374,510.12 1375.12,509 1376.5,509L1383.52,509C1384.89,509.009 1386,510.126 1386,511.5C1386,512.88 1384.88,514 1383.5,514L1376.5,514L1376.49,514Z" style="fill:none;stroke:rgb(191,191,191);stroke-width:0.9px;"/>
        </g>
        <g transform="matrix(4.61981,0,0,4.61981,-2778.4,-399.841)">
            <path d="M1376.49,514C1375.12,513.996 1374,512.877 1374,511.5C1374,510.12 1375.12,509 1376.5,509L1383.52,509C1384.89,509.009 1386,510.126 1386,511.5C1386,512.88 1384.88,514 1383.5,514L1376.5,514L1376.49,514Z" style="fill:none;stroke:rgb(191,191,191);stroke-width:0.9px;"/>
        </g>
        <g transform="matrix(4.61981,0,0,-4.61981,-2778.4,4704.09)">
            <path d="M1376.49,514C1375.12,513.996 1374,512.877 1374,511.5C1374,510.12 1375.12,509 1376.5,509L1383.52,509C1384.89,509.009 1386,510.126 1386,511.5C1386,512.88 1384.88,514 1383.5,514L1376.5,514L1376.49,514Z" style="fill:none;stroke:rgb(191,191,191);stroke-width:0.9px;"/>
        </g>
        <g transform="matrix(4.61981,0,0,4.61981,-2607.47,-404.461)">
            <path d="M1376.49,514C1375.12,513.996 1374,512.877 1374,511.5C1374,510.12 1375.12,509 1376.5,509L1383.52,509C1384.89,509.009 1386,510.126 1386,511.5C1386,512.88 1384.88,514 1383.5,514L1376.5,514L1376.49,514Z" style="fill:none;stroke:rgb(191,191,191);stroke-width:0.9px;"/>
        </g>
        <g transform="matrix(4.61981,0,0,-4.61981,-2607.47,4708.71)">
            <path d="M1376.49,514C1375.12,513.996 1374,512.877 1374,511.5C1374,510.12 1375.12,509 1376.5,509L1383.52,509C1384.89,509.009 1386,510.126 1386,511.5C1386,512.88 1384.88,514 1383.5,514L1376.5,514L1376.49,514Z" style="fill:none;stroke:rgb(191,191,191);stroke-width:0.9px;"/>
        </g>
        <g transform="matrix(4.61981,0,0,4.61981,-2956.27,-398.036)">
            <circle cx="1371" cy="532" r="3" style="fill:none;stroke:rgb(191,191,191);stroke-width:0.9px;"/>
        </g>
        <g transform="matrix(4.61981,0,0,-4.61981,-2956.27,4702.29)">
            <circle cx="1371" cy="532" r="3" style="fill:none;stroke:rgb(191,191,191);stroke-width:0.9px;"/>
        </g>
        <g transform="matrix(4.61981,0,0,4.61981,-2785.33,-402.655)">
            <circle cx="1371" cy="532" r="3" style="fill:none;stroke:rgb(191,191,191);stroke-width:0.9px;"/>
        </g>
        <g transform="matrix(4.61981,0,0,-4.61981,-2785.33,4706.91)">
            <circle cx="1371" cy="532" r="3" style="fill:none;stroke:rgb(191,191,191);stroke-width:0.9px;"/>
        </g>
        <g transform="matrix(4.61981,0,0,4.61981,-2614.4,-411.895)">
            <circle cx="1371" cy="532" r="3" style="fill:none;stroke:rgb(191,191,191);stroke-width:0.9px;"/>
        </g>
        <g transform="matrix(4.61981,0,0,-4.61981,-2614.4,4716.15)">
            <circle cx="1371" cy="532" r="3" style="fill:none;stroke:rgb(191,191,191);stroke-width:0.9px;"/>
        </g>
        <g transform="matrix(4.61981,0,0,4.61981,-2965.51,-398.036)">
            <circle cx="1373" cy="532" r="6" style="fill:none;stroke:rgb(191,191,191);stroke-width:0.9px;"/>
        </g>
        <g transform="matrix(4.61981,0,0,-4.61981,-2965.51,4702.29)">
            <circle cx="1373" cy="532" r="6" style="fill:none;stroke:rgb(191,191,191);stroke-width:0.9px;"/>
        </g>
        <g transform="matrix(4.61981,0,0,4.61981,-2794.57,-402.655)">
            <circle cx="1373" cy="532" r="6" style="fill:none;stroke:rgb(191,191,191);stroke-width:0.9px;"/>
        </g>
        <g transform="matrix(4.61981,0,0,-4.61981,-2794.57,4706.91)">
            <circle cx="1373" cy="532" r="6" style="fill:none;stroke:rgb(191,191,191);stroke-width:0.9px;"/>
        </g>
        <g transform="matrix(4.61981,0,0,4.61981,-2623.64,-411.895)">
            <circle cx="1373" cy="532" r="6" style="fill:none;stroke:rgb(191,191,191);stroke-width:0.9px;"/>
        </g>
        <g transform="matrix(4.61981,0,0,-4.61981,-2623.64,4716.15)">
            <circle cx="1373" cy="532" r="6" style="fill:none;stroke:rgb(191,191,191);stroke-width:0.9px;"/>
        </g>
        <g transform="matrix(4.61981,0,0,4.61981,-2951.65,-398.036)">
            <path d="M820.834,522.143L812,522L812,583L820.834,582.839L820.834,522.143Z" style="fill:none;stroke:rgb(191,191,191);stroke-width:0.9px;"/>
        </g>
        <g transform="matrix(4.61981,0,0,4.61981,-2951.65,-398.036)">
            <path d="M824.558,522.203L824.558,582.771L831.393,582.647L831.393,522.314L824.558,522.203Z" style="fill:none;stroke:rgb(191,191,191);stroke-width:0.9px;"/>
        </g>
        <g transform="matrix(4.61981,0,0,4.61981,-2951.65,-398.036)">
            <path d="M835.116,522.374L835.116,582.579L843.546,582.425L843.546,522.511L835.116,522.374Z" style="fill:none;stroke:rgb(191,191,191);stroke-width:0.9px;"/>
        </g>
        <g transform="matrix(4.61981,0,0,4.61981,-2951.65,-398.036)">
            <path d="M847.27,522.571L847.27,582.357L855.699,582.204L855.699,522.708L847.27,522.571Z" style="fill:none;stroke:rgb(191,191,191);stroke-width:0.9px;"/>
        </g>
        <g transform="matrix(4.61981,0,0,4.61981,-2951.65,-398.036)">
            <path d="M859.423,522.768L859.423,582.136L868.853,581.964L868.853,522.921L859.423,522.768Z" style="fill:none;stroke:rgb(191,191,191);stroke-width:0.9px;"/>
        </g>
        <g transform="matrix(4.61981,0,0,4.61981,-2951.65,-398.036)">
            <path d="M872.577,522.981L872.577,581.896L883.006,581.706L883.006,523.15L872.577,522.981Z" style="fill:none;stroke:rgb(191,191,191);stroke-width:0.9px;"/>
        </g>
        <g transform="matrix(4.61981,0,0,4.61981,-2951.65,-398.036)">
            <path d="M886.73,523.21L886.73,581.639L897.16,581.449L897.16,523.379L886.73,523.21Z" style="fill:none;stroke:rgb(191,191,191);stroke-width:0.9px;"/>
        </g>
        <g transform="matrix(4.61981,0,0,4.61981,-2951.65,-398.036)">
            <path d="M900.883,523.439L900.883,581.381L914.037,581.141L914.037,523.652L900.883,523.439Z" style="fill:none;stroke:rgb(191,191,191);stroke-width:0.9px;"/>
        </g>
        <g transform="matrix(4.61981,0,0,4.61981,-2951.65,-398.036)">
            <path d="M917.76,523.713L917.76,581.073L930.693,580.838L930.693,523.922L917.76,523.713Z" style="fill:none;stroke:rgb(191,191,191);stroke-width:0.9px;"/>
        </g>
        <g transform="matrix(4.61981,0,0,4.61981,-2951.65,-398.036)">
            <path d="M933.975,523.975L933.975,580.778L947.129,580.538L947.129,524.188L933.975,523.975Z" style="fill:none;stroke:rgb(191,191,191);stroke-width:0.9px;"/>
        </g>
        <g transform="matrix(4.61981,0,0,4.61981,-2951.65,-398.036)">
            <path d="M950.411,524.241L950.411,580.478L966.847,580.179L966.847,524.508L950.411,524.241Z" style="fill:none;stroke:rgb(191,191,191);stroke-width:0.9px;"/>
        </g>
        <g transform="matrix(4.61981,0,0,4.61981,-2951.65,-398.036)">
            <path d="M970.129,524.561L970.129,580.119L986.564,579.82L986.564,524.827L970.129,524.561Z" style="fill:none;stroke:rgb(191,191,191);stroke-width:0.9px;"/>
        </g>
        <g transform="matrix(4.61981,0,0,4.61981,-2951.65,-398.036)">
            <path d="M989.847,524.88L989.847,579.76L1006.28,579.46L1006.28,525.146L989.847,524.88Z" style="fill:none;stroke:rgb(191,191,191);stroke-width:0.9px;"/>
        </g>
        <g transform="matrix(4.61981,0,0,4.61981,-2951.65,-398.036)">
            <path d="M1009.56,525.199L1009.56,579.401L1029.28,579.041L1029.28,525.519L1009.56,525.199Z" style="fill:none;stroke:rgb(191,191,191);stroke-width:0.9px;"/>
        </g>
        <g transform="matrix(4.61981,0,0,4.61981,-2951.65,-398.036)">
            <path d="M1032.56,525.572L1032.56,578.982L1052.28,578.622L1052.28,525.891L1032.56,525.572Z" style="fill:none;stroke:rgb(191,191,191);stroke-width:0.9px;"/>
        </g>
        <g transform="matrix(4.61981,0,0,4.61981,-2951.65,-398.036)">
            <path d="M1055.56,525.944L1055.56,578.563L1077.28,578.167L1077.28,526.296L1055.56,525.944Z" style="fill:none;stroke:rgb(191,191,191);stroke-width:0.9px;"/>
        </g>
        <g transform="matrix(4.61981,0,0,4.61981,-2951.65,-398.036)">
            <path d="M1080.56,526.349L1080.56,578.107L1104,577.68L1104,526.729L1080.56,526.349Z" style="fill:none;stroke:rgb(191,191,191);stroke-width:0.9px;"/>
        </g>
        <g transform="matrix(4.61981,0,0,4.61981,-2951.65,-398.036)">
            <path d="M1107.28,526.782L1107.28,577.62L1131.72,577.175L1131.72,527.178L1107.28,526.782Z" style="fill:none;stroke:rgb(191,191,191);stroke-width:0.9px;"/>
        </g>
        <g transform="matrix(4.61981,0,0,4.61981,-2951.65,-398.036)">
            <path d="M1135,527.231L1135,577.115L1161.72,576.629L1161.72,527.663L1135,527.231Z" style="fill:none;stroke:rgb(191,191,191);stroke-width:0.9px;"/>
        </g>
        <g transform="matrix(4.61981,0,0,4.61981,-2951.65,-398.036)">
            <path d="M1192.72,528.165L1165,527.717L1165,576.569L1192.72,576.064L1192.72,528.165Z" style="fill:none;stroke:rgb(191,191,191);stroke-width:0.9px;"/>
        </g>
        <g transform="matrix(4.61981,0,0,4.61981,-2951.65,-398.036)">
            <path d="M1226.72,528.716L1196,528.219L1196,576.004L1226.72,575.444L1226.72,528.716Z" style="fill:none;stroke:rgb(191,191,191);stroke-width:0.9px;"/>
        </g>
        <g transform="matrix(4.61981,0,0,4.61981,-2951.65,-398.036)">
            <path d="M1261.72,529.283L1230,528.769L1230,575.385L1261.72,574.807L1261.72,529.283Z" style="fill:none;stroke:rgb(191,191,191);stroke-width:0.9px;"/>
        </g>
        <g transform="matrix(4.61981,0,0,4.61981,-2951.65,-398.036)">
            <path d="M1300.72,529.914L1265,529.336L1265,574.747L1300.72,574.096L1300.72,529.914Z" style="fill:none;stroke:rgb(191,191,191);stroke-width:0.9px;"/>
        </g>
        <g transform="matrix(4.61981,0,0,4.79636,-2951.65,-500.43)">
            <path d="M1165,529.641L1165,576.695L1161.72,576.753L1161.72,529.59L1165,529.641Z" style="fill:none;stroke:rgb(191,191,191);stroke-width:0.88px;"/>
        </g>
        <g transform="matrix(4.61981,0,0,5.81228,-3090.24,-1056.93)">
            <path d="M1165,532.425L1165,572.075L1161.72,572.123L1161.72,532.383L1165,532.425Z" style="fill:none;stroke:rgb(191,191,191);stroke-width:0.79px;"/>
        </g>
        <g transform="matrix(4.61981,0,0,7.41943,-3218.29,-1949.51)">
            <path d="M1165,537.118L1165,568.773L1161.72,568.81L1161.72,537.085L1165,537.118Z" style="fill:none;stroke:rgb(191,191,191);stroke-width:0.67px;"/>
        </g>
        <g transform="matrix(4.61981,0,0,10.1862,-3341.72,-3486.3)">
            <path d="M1165,541.902L1165,565.376L1161.72,565.403L1161.72,541.878L1165,541.902Z" style="fill:none;stroke:rgb(191,191,191);stroke-width:0.53px;"/>
        </g>
        <g transform="matrix(4.61981,0,0,11.9789,-3457.22,-4477.59)">
            <path d="M1165,543.399L1165,563.692L1161.72,563.715L1161.72,543.378L1165,543.399Z" style="fill:none;stroke:rgb(191,191,191);stroke-width:0.46px;"/>
        </g>
        <g transform="matrix(4.61981,0,0,15.4475,-3563.47,-6394.7)">
            <path d="M1165,545.376L1165,561.349L1161.72,561.367L1161.72,545.36L1165,545.376Z" style="fill:none;stroke:rgb(191,191,191);stroke-width:0.37px;"/>
        </g>
        <g transform="matrix(4.61981,0,0,20.7804,-3669.73,-9337.57)">
            <path d="M1165,546.952L1165,559.001L1161.72,559.015L1161.72,546.94L1165,546.952Z" style="fill:none;stroke:rgb(191,191,191);stroke-width:0.28px;"/>
        </g>
        <g transform="matrix(1.10876,0,0,1.10876,-221.152,1422.17)">
            <path d="M2979,566.31C3044.88,566.31 3105.26,542.553 3152.02,503.145C3192.22,506.844 3234.76,509.526 3279,510.896L3299.83,511.59L3300.83,511.619C3321.7,512.228 3342.92,512.5 3364.42,512.5C3387.7,512.5 3410.64,512.181 3433.17,511.446L3454,510.822L3455.17,510.78C3501.37,509.126 3545.67,506.187 3587.33,501.987L3597.31,501.14L3608.17,499.827L3608.64,499.778C3648.92,495.565 3686.49,490.132 3720.67,483.809C3720.67,483.809 3716.95,536.535 3720.67,562.5C3724.83,591.591 3761.62,631.753 3745.67,658.356L3745.85,658.668C3761.33,685.272 3724.82,725.234 3720.67,754.211C3716.95,780.177 3720.67,832.902 3720.67,832.902C3686.49,826.579 3648.92,821.146 3608.64,816.934L3608.17,816.884L3597.31,815.572L3587.33,814.724C3545.67,810.524 3501.37,807.585 3455.17,805.931L3454,805.889L3433.17,805.265C3410.64,804.53 3387.7,804.211 3364.42,804.211C3342.92,804.211 3321.7,804.483 3300.83,805.092L3299.83,805.121L3279,805.815C3234.76,807.185 3192.22,809.867 3152.02,813.567C3105.26,774.158 3044.88,750.401 2979,750.401L2979,566.31Z" style="fill:none;stroke:rgb(191,191,191);stroke-width:3.76px;"/>
        </g>
        <g transform="matrix(4.61981,0,0,29.9627,-3760.82,-14415.2)">
            <path d="M1165,548.749L1165,557.211L1161.72,557.22L1161.72,548.741L1165,548.749Z" style="fill:none;stroke:rgb(191,191,191);stroke-width:0.19px;"/>
        </g>
        <g transform="matrix(4.61981,0,0,42.4942,-3851.91,-21347.2)">
            <path d="M1165,550.016L1165,556.057L1161.72,556.063L1161.72,550.011L1165,550.016Z" style="fill:none;stroke:rgb(191,191,191);stroke-width:0.14px;"/>
        </g>
        <g transform="matrix(4.61981,0,0,65.3933,-3943.01,-34002)">
            <path d="M1165,550.91L1165,554.883L1161.72,554.887L1161.72,550.907L1165,550.91Z" style="fill:none;stroke:rgb(191,191,191);stroke-width:0.09px;"/>
        </g>
        <g transform="matrix(4.61981,0,0,89.7636,-4018.94,-47469.3)">
            <path d="M1165,551.359L1165,554.282L1161.72,554.285L1161.72,551.356L1165,551.359Z" style="fill:none;stroke:rgb(191,191,191);stroke-width:0.07px;"/>
        </g>
        <g transform="matrix(5.24117,0,0,119.729,-4817.73,-64037.2)">
            <path d="M1165,551.734L1165,553.947L1161.72,553.95L1161.72,551.731L1165,551.734Z" style="fill:none;stroke:rgb(191,191,191);stroke-width:0.05px;"/>
        </g>
        <g transform="matrix(5.24117,0,0,173.878,-4895.7,-93954.6)">
            <path d="M1165,551.965L1165,553.504L1161.72,553.506L1161.72,551.963L1165,551.965Z" style="fill:none;stroke:rgb(191,191,191);stroke-width:0.03px;"/>
        </g>
        <g transform="matrix(5.24117,0,0,254.725,-4961.08,-138625)">
            <path d="M1165,552.142L1165,553.201L1161.72,553.203L1161.72,552.141L1165,552.142Z" style="fill:none;stroke:rgb(191,191,191);stroke-width:0.02px;"/>
        </g>
        <g transform="matrix(5.24117,0,0,346.077,-5026.47,-189115)">
            <path d="M1165,552.285L1165,553.072L1161.72,553.072L1161.72,552.284L1165,552.285Z" style="fill:none;stroke:rgb(191,191,191);stroke-width:0.02px;"/>
        </g>
        <g transform="matrix(5.24117,0,0,510.195,-5087.23,-279829)">
            <path d="M1165,552.428L1165,552.965L1161.72,552.966L1161.72,552.427L1165,552.428Z" style="fill:none;stroke:rgb(191,191,191);stroke-width:0.01px;"/>
        </g>
        <g transform="matrix(5.24117,0,0,784.604,-5143.38,-431503)">
            <path d="M1165,552.532L1165,552.884L1161.72,552.885L1161.72,552.532L1165,552.532Z" style="fill:none;stroke:rgb(191,191,191);stroke-width:0.01px;"/>
        </g>
        <g transform="matrix(5.24117,0,0,1151.28,-5199.53,-634165)">
            <path d="M1165,552.588L1165,552.829L1161.72,552.83L1161.72,552.587L1165,552.588Z" style="fill:none;stroke:rgb(191,191,191);stroke-width:0.01px;"/>
        </g>
        <g transform="matrix(5.24117,0,0,1571.08,-5248.3,-866192)">
            <path d="M1165,552.617L1165,552.795L1161.72,552.795L1161.72,552.616L1165,552.617Z" style="fill:none;"/>
        </g>
        <g transform="matrix(4.61981,0,0,5.48204,-2808.43,-882.039)">
            <path d="M1165,533.429L1165,573.698L1161.72,573.749L1161.72,533.384L1165,533.429Z" style="fill:none;stroke:rgb(191,191,191);stroke-width:0.82px;"/>
        </g>
        <g transform="matrix(4.61981,0,0,6.16874,-2651.36,-1262.18)">
            <path d="M1165,536.083L1165,570.993L1161.72,571.038L1161.72,536.043L1165,536.083Z" style="fill:none;stroke:rgb(191,191,191);stroke-width:0.76px;"/>
        </g>
        <g transform="matrix(4.61981,0,0,7.09284,-2489.66,-1771.39)">
            <path d="M1165,538.401L1165,567.978L1161.72,568.017L1161.72,538.366L1165,538.401Z" style="fill:none;stroke:rgb(191,191,191);stroke-width:0.7px;"/>
        </g>
        <g transform="matrix(7.43489,0,0,7.57451,-5579.82,-2035.75)">
            <path d="M1161.72,539.417L1161.72,566.364L1165,566.305L1165,539.469L1161.72,539.417Z" style="fill:none;stroke:rgb(191,191,191);stroke-width:0.56px;"/>
        </g>
        <g transform="matrix(4.61981,0,0,4.61981,-2949.34,-398.036)">
            <path d="M1377,509C1373.07,505.997 1371.36,499.538 1371,491L1380,490L1389,491C1388.64,499.538 1386.93,505.997 1383,509L1377,509Z" style="fill:none;stroke:rgb(191,191,191);stroke-width:0.9px;"/>
        </g>
        <g transform="matrix(4.61981,0,0,-4.61981,-2949.34,4702.29)">
            <path d="M1377,509C1373.07,505.997 1371.36,499.538 1371,491L1380,490L1389,491C1388.64,499.538 1386.93,505.997 1383,509L1377,509Z" style="fill:none;stroke:rgb(191,191,191);stroke-width:0.9px;"/>
        </g>
        <g transform="matrix(4.61981,0,0,4.61981,-2778.4,-399.841)">
            <path d="M1377,509C1373.07,505.997 1371.36,499.538 1371,491L1380,490L1389,491C1388.64,499.538 1386.93,505.997 1383,509L1377,509Z" style="fill:none;stroke:rgb(191,191,191);stroke-width:0.9px;"/>
        </g>
        <g transform="matrix(4.61981,0,0,-4.61981,-2778.4,4704.09)">
            <path d="M1377,509C1373.07,505.997 1371.36,499.538 1371,491L1380,490L1389,491C1388.64,499.538 1386.93,505.997 1383,509L1377,509Z" style="fill:none;stroke:rgb(191,191,191);stroke-width:0.9px;"/>
        </g>
        <g transform="matrix(4.61981,0,0,4.61981,-2607.47,-404.461)">
            <path d="M1377,509C1373.07,505.997 1371.36,499.538 1371,491L1380,490L1389,491C1388.64,499.538 1386.93,505.997 1383,509L1377,509Z" style="fill:none;stroke:rgb(191,191,191);stroke-width:0.9px;"/>
        </g>
        <g transform="matrix(4.61981,0,0,-4.61981,-2607.47,4708.71)">
            <path d="M1377,509C1373.07,505.997 1371.36,499.538 1371,491L1380,490L1389,491C1388.64,499.538 1386.93,505.997 1383,509L1377,509Z" style="fill:none;stroke:rgb(191,191,191);stroke-width:0.9px;"/>
        </g>
        <g transform="matrix(1.10876,0,0,1.29825,-382.093,848.542)">
            <path d="M3124.16,925.497L1065.82,897.333L1065.82,1114.4L3124.16,1082.72L3124.16,925.497Z" style="fill:none;stroke:rgb(191,191,191);stroke-width:0.83px;"/>
        </g>
        <g transform="matrix(1.10876,0,0,1.29825,-382.093,848.542)">
            <path d="M3102.15,935.415L1065.82,907.885L1065.82,1102.31L3102.15,1072.5L3102.15,935.415Z" style="fill:none;stroke:rgb(191,191,191);stroke-width:1.9px;"/>
        </g>
        <g transform="matrix(1.10876,0,0,1.29825,-382.093,848.542)">
            <path d="M3102.15,962.832L1065.82,946.77L1065.82,1063.42L3102.15,1045.08L3102.15,962.832Z" style="fill:none;stroke:rgb(191,191,191);stroke-width:1.9px;"/>
        </g>
        <g transform="matrix(1.10876,0,0,1.29825,-382.093,848.542)">
            <path d="M3102.15,990.248L1065.82,985.655L1065.82,1024.54L3102.15,1017.67L3102.15,990.248Z" style="fill:none;stroke:rgb(191,191,191);stroke-width:1.9px;"/>
        </g>
        <g transform="matrix(0.406712,0,0,0.593227,1840.54,1287.6)">
            <g transform="matrix(1,0,0,1,2387,1088)">
                <rect x="605" y="339" width="60" height="60" style="fill:none;stroke:rgb(191,191,191);stroke-width:4.51px;"/>
            </g>
            <g transform="matrix(1,0,0,1,2387,968)">
                <rect x="605" y="339" width="60" height="60" style="fill:none;stroke:rgb(191,191,191);stroke-width:4.51px;"/>
            </g>
            <g transform="matrix(1,0,0,1,2387,1148)">
                <rect x="605" y="339" width="60" height="60" style="fill:none;stroke:rgb(191,191,191);stroke-width:4.51px;"/>
            </g>
            <g transform="matrix(1,0,0,1,2387,1028)">
                <rect x="605" y="339" width="60" height="60" style="fill:none;stroke:rgb(191,191,191);stroke-width:4.51px;"/>
            </g>
            <g transform="matrix(1,0,0,1,2387,1208)">
                <rect x="605" y="339" width="60" height="60" style="fill:none;stroke:rgb(191,191,191);stroke-width:4.51px;"/>
            </g>
        </g>
        <g transform="matrix(1.83337,0,0,1.83337,-2495.16,-68.1151)">
            <circle cx="2803" cy="1211" r="5" style="fill:rgb(191,191,191);"/>
        </g>
        <g transform="matrix(1.83337,0,0,1.83337,-2785.39,-68.1151)">
            <circle cx="2803" cy="1211" r="5" style="fill:rgb(191,191,191);"/>
        </g>
        <g transform="matrix(1.83337,0,0,1.83337,-3042.63,-68.1151)">
            <circle cx="2803" cy="1211" r="5" style="fill:rgb(191,191,191);"/>
        </g>
        <g transform="matrix(1.83337,0,0,1.83337,-3277.68,-68.1151)">
            <circle cx="2803" cy="1211" r="5" style="fill:rgb(191,191,191);"/>
        </g>
        <g transform="matrix(1.83337,0,0,1.83337,-3822.08,-68.1151)">
            <circle cx="2803" cy="1211" r="5" style="fill:rgb(191,191,191);"/>
        </g>
        <g transform="matrix(1.83337,0,0,1.83337,-3971.76,-68.1151)">
            <circle cx="2803" cy="1211" r="5" style="fill:rgb(191,191,191);"/>
        </g>
        <g transform="matrix(1.10876,0,0,1.10876,-1169.31,1018.58)">
            <g transform="matrix(1.65354,0,0,1.65354,-2167.57,-1016.43)">
                <circle cx="2803" cy="1211" r="5" style="fill:rgb(191,191,191);"/>
            </g>
            <g transform="matrix(1.65354,0,0,1.65354,-2167.57,-943.426)">
                <circle cx="2803" cy="1211" r="5" style="fill:rgb(191,191,191);"/>
            </g>
        </g>
    </g>
</svg>
