<?xml version="1.0" encoding="UTF-8" standalone="no"?>
<!DOCTYPE svg PUBLIC "-//W3C//DTD SVG 1.1//EN" "http://www.w3.org/Graphics/SVG/1.1/DTD/svg11.dtd">
<svg width="100%" height="100%" viewBox="0 0 3544 1182" version="1.1" xmlns="http://www.w3.org/2000/svg" xmlns:xlink="http://www.w3.org/1999/xlink" xml:space="preserve" xmlns:serif="http://www.serif.com/" style="fill-rule:evenodd;clip-rule:evenodd;stroke-linecap:round;stroke-linejoin:round;stroke-miterlimit:1.5;">
    <g transform="matrix(1,0,0,1,-636.315,-1367.57)">
        <g>
            <g transform="matrix(2.0843,0,0,6.48957,-1658.5,-1507.31)">
                <rect x="1101" y="443" width="1700" height="182" style="fill:none;"/>
            </g>
            <g transform="matrix(1,0,0,1,40,-194)">
                <path d="M600.103,1662.89C618.895,1654.29 639.226,1644.12 661.331,1632.26C946.486,1479.29 1154.84,1651.98 1193.92,1925.07C1198.22,1955.13 1200.47,1986.41 1200.55,2018.61L1200.55,2020.14C1203.29,2257.68 1007.91,2287.38 1007.91,2287.38C815.791,2317.51 791.068,2536.48 955.969,2632.99C1000.65,2659.13 984.202,2736.25 882.355,2736.98C779.131,2737.72 683.397,2687.62 600.103,2649.04L600.103,1662.89Z" style="fill:url(#_Linear1);"/>
            </g>
            <g transform="matrix(1,0,0,1,40,-194)">
                <path d="M600.103,2293.68L600.103,2508.01C698.403,2471.71 746.959,2457.77 776.536,2449.15C866.245,2414.53 812.179,2375.69 926.115,2288.69L600.103,2293.68Z" style="fill:rgb(199,199,199);"/>
            </g>
            <g transform="matrix(1,0,0,1,40,-194)">
                <path d="M600.103,1930.3L600.103,2375.36L783.434,2375.36C792.323,2375.36 799.54,2368.15 799.54,2359.26L799.54,1946.4C799.54,1937.51 792.323,1930.3 783.434,1930.3L600.103,1930.3Z" style="fill:rgb(173,173,173);"/>
            </g>
            <g transform="matrix(5.14213,0,0,5.18154,-3887.7,-531.693)">
                <circle cx="939" cy="409" r="17" style="fill:rgb(203,203,203);stroke:rgb(173,173,173);stroke-width:0.36px;"/>
            </g>
            <g transform="matrix(4.60085,0,0,4.63612,-2898.65,-603.008)">
                <circle cx="834.5" cy="472.5" r="8.5" style="fill:rgb(229,229,229);stroke:rgb(173,173,173);stroke-width:0.41px;"/>
            </g>
            <g transform="matrix(2.70638,0,0,2.72713,-1317.72,298.99)">
                <circle cx="834.5" cy="472.5" r="8.5" style="stroke:rgb(173,173,173);stroke-width:0.69px;"/>
            </g>
            <g transform="matrix(4.60085,0,0,4.63612,-2894.05,-605.326)">
                <path d="M833.5,473C835.984,473 837,476.137 837,480C837,483.863 836.984,487 833.5,487C830.016,487 830,483.863 830,480C830,476.137 831.016,473 833.5,473Z" style="fill:rgb(184,184,184);stroke:rgb(173,173,173);stroke-width:0.41px;"/>
            </g>
            <g transform="matrix(1,0,0,1,0,503.976)">
                <path d="M839.642,1315.51L3121.83,1352.07L3121.83,1556.18L839.642,1592.75L839.642,1315.51Z" style="fill:rgb(207,207,207);stroke:rgb(75,74,74);stroke-width:2.29px;"/>
            </g>
            <path d="M880.456,1820.14L880.456,2096.07L839.642,2096.72L839.642,1819.48L880.456,1820.14ZM929.232,1820.92L929.232,2095.28L897.658,2095.79L897.658,1820.41L929.232,1820.92ZM985.379,1821.82L985.379,2094.39L946.435,2095.01L946.435,1821.19L985.379,1821.82ZM1041.53,1822.72L1041.53,2093.49L1002.58,2094.11L1002.58,1822.09L1041.53,1822.72ZM1102.29,1823.69L1102.29,2092.51L1058.73,2093.21L1058.73,1822.99L1102.29,1823.69ZM1167.68,1824.74L1167.68,2091.47L1119.49,2092.24L1119.49,1823.97L1167.68,1824.74ZM1233.06,1825.79L1233.06,2090.42L1184.88,2091.19L1184.88,1825.01L1233.06,1825.79ZM1311.03,1827.04L1311.03,2089.17L1250.27,2090.14L1250.27,1826.06L1311.03,1827.04ZM1387.98,1828.27L1387.98,2087.93L1328.24,2088.89L1328.24,1827.31L1387.98,1828.27ZM1463.91,1829.48L1463.91,2086.72L1403.14,2087.69L1403.14,1828.51L1463.91,1829.48ZM1555,1830.94L1555,2085.26L1479.08,2086.48L1479.08,1829.73L1555,1830.94ZM1646.1,1832.4L1646.1,2083.8L1570.17,2085.02L1570.17,1831.19L1646.1,1832.4ZM1737.19,1833.86L1737.19,2082.34L1661.26,2083.56L1661.26,1832.65L1737.19,1833.86ZM1843.44,1835.56L1843.44,2080.64L1752.35,2082.1L1752.35,1834.11L1843.44,1835.56ZM1949.7,1837.27L1949.7,2078.94L1858.61,2080.4L1858.61,1835.81L1949.7,1837.27ZM2065.2,1839.12L2065.2,2077.09L1964.86,2078.69L1964.86,1837.51L2065.2,1839.12ZM2188.63,1841.1L2188.63,2075.11L2080.36,2076.84L2080.36,1839.36L2188.63,1841.1ZM2316.68,1843.15L2316.68,2073.06L2203.79,2074.87L2203.79,1841.34L2316.68,1843.15ZM2455.27,1845.37L2455.27,2070.84L2331.84,2072.81L2331.84,1843.39L2455.27,1845.37ZM2598.49,1847.66L2598.49,2068.54L2470.44,2070.59L2470.44,1845.61L2598.49,1847.66ZM2755.56,1850.18L2755.56,2066.03L2613.65,2068.3L2613.65,1847.9L2755.56,1850.18ZM2917.25,1852.77L2917.25,2063.43L2770.72,2065.78L2770.72,1850.42L2917.25,1852.77ZM3097.43,1855.65L3097.43,2060.55L2932.42,2063.19L2932.42,1853.01L3097.43,1855.65Z" style="fill:rgb(243,243,243);stroke:rgb(75,74,74);stroke-width:2.29px;"/>
            <g transform="matrix(1.10876,0,0,1.10876,-181.152,1228.17)">
                <path d="M2979,566.31C3044.88,566.31 3105.26,542.553 3152.02,503.145C3192.22,506.844 3234.76,509.526 3279,510.896L3299.83,511.59L3300.83,511.619C3321.7,512.228 3342.92,512.5 3364.42,512.5C3387.7,512.5 3410.64,512.181 3433.17,511.446L3454,510.822L3455.17,510.78C3501.37,509.126 3545.67,506.187 3587.33,501.987L3597.31,501.14L3608.17,499.827L3608.64,499.778C3648.92,495.565 3686.49,490.132 3720.67,483.809C3720.67,483.809 3716.95,536.535 3720.67,562.5C3724.83,591.591 3761.62,631.753 3745.67,658.356L3745.85,658.668C3761.33,685.272 3724.82,725.234 3720.67,754.211C3716.95,780.177 3720.67,832.902 3720.67,832.902C3686.49,826.579 3648.92,821.146 3608.64,816.934L3608.17,816.884L3597.31,815.572L3587.33,814.724C3545.67,810.524 3501.37,807.585 3455.17,805.931L3454,805.889L3433.17,805.265C3410.64,804.53 3387.7,804.211 3364.42,804.211C3342.92,804.211 3321.7,804.483 3300.83,805.092L3299.83,805.121L3279,805.815C3234.76,807.185 3192.22,809.867 3152.02,813.567C3105.26,774.158 3044.88,750.401 2979,750.401L2979,566.31Z" style="fill:rgb(50,50,50);stroke:rgb(77,77,77);stroke-width:3.01px;"/>
            </g>
            <g transform="matrix(4.61981,0,0,4.61981,-4343.78,-745.075)">
                <path d="M1621,585.067C1621.06,582.308 1622.64,581.71 1623.8,578.967C1624.47,577.367 1623.16,572.431 1625,571.127C1626.66,569.95 1633.99,573.497 1642.67,574.127C1652.66,574.852 1663.23,573.351 1671.55,575.077C1675.94,575.986 1678.9,578.178 1681,580.232C1683.15,582.343 1686,582.116 1686,585.132L1686,585.179C1685.99,588.204 1683.14,587.93 1681,590.032C1678.9,592.086 1675.94,594.278 1671.55,595.188C1663.23,596.914 1652.66,595.413 1642.67,596.138C1633.99,596.767 1626.66,600.315 1625,599.138C1623.16,597.833 1624.47,592.897 1623.8,591.298C1622.63,588.532 1621.04,587.947 1621,585.132L1621,585.067Z" style="fill:none;stroke:rgb(153,153,153);stroke-width:0.23px;"/>
            </g>
            <g transform="matrix(1,0,0,1,40,-194)">
                <g transform="matrix(4.61981,0,0,4.61981,-2951.65,-398.036)">
                    <path d="M1383,514L1378,514L1378,516.615L1383,516.782L1383,514Z" style="fill:rgb(177,177,177);"/>
                </g>
                <g transform="matrix(4.61981,0,0,-4.61981,-2951.65,4702.29)">
                    <path d="M1383,514L1378,514L1378,516.615L1383,516.782L1383,514Z" style="fill:rgb(177,177,177);"/>
                </g>
                <g transform="matrix(4.61981,0,0,11.2634,-2780.71,-3814.62)">
                    <path d="M1383,515.226L1383,514L1378,514L1378,515.287L1383,515.226Z" style="fill:rgb(177,177,177);"/>
                </g>
                <g transform="matrix(4.61981,0,0,-11.2634,-2780.71,8118.87)">
                    <path d="M1383,515.226L1383,514L1378,514L1378,515.287L1383,515.226Z" style="fill:rgb(177,177,177);"/>
                </g>
                <g transform="matrix(4.61981,0,0,4.61981,-2609.78,-404.461)">
                    <path d="M1383,515.349L1383,514L1378,514L1378,515.868L1380.39,515.664L1383,515.349Z" style="fill:rgb(177,177,177);"/>
                </g>
                <g transform="matrix(4.61981,0,0,-4.61981,-2609.78,4708.71)">
                    <path d="M1383,515.349L1383,514L1378,514L1378,515.868L1380.39,515.664L1383,515.349Z" style="fill:rgb(177,177,177);"/>
                </g>
                <g transform="matrix(4.61981,0,0,4.61981,-2949.34,-398.036)">
                    <path d="M1376.49,514C1375.12,513.996 1374,512.877 1374,511.5C1374,510.12 1375.12,509 1376.5,509L1383.52,509C1384.89,509.009 1386,510.126 1386,511.5C1386,512.88 1384.88,514 1383.5,514L1376.5,514L1376.49,514Z" style="fill:rgb(177,177,177);"/>
                </g>
                <g transform="matrix(4.61981,0,0,-4.61981,-2949.34,4702.29)">
                    <path d="M1376.49,514C1375.12,513.996 1374,512.877 1374,511.5C1374,510.12 1375.12,509 1376.5,509L1383.52,509C1384.89,509.009 1386,510.126 1386,511.5C1386,512.88 1384.88,514 1383.5,514L1376.5,514L1376.49,514Z" style="fill:rgb(177,177,177);"/>
                </g>
                <g transform="matrix(4.61981,0,0,4.61981,-2778.4,-399.841)">
                    <path d="M1376.49,514C1375.12,513.996 1374,512.877 1374,511.5C1374,510.12 1375.12,509 1376.5,509L1383.52,509C1384.89,509.009 1386,510.126 1386,511.5C1386,512.88 1384.88,514 1383.5,514L1376.5,514L1376.49,514Z" style="fill:rgb(177,177,177);"/>
                </g>
                <g transform="matrix(4.61981,0,0,-4.61981,-2778.4,4704.09)">
                    <path d="M1376.49,514C1375.12,513.996 1374,512.877 1374,511.5C1374,510.12 1375.12,509 1376.5,509L1383.52,509C1384.89,509.009 1386,510.126 1386,511.5C1386,512.88 1384.88,514 1383.5,514L1376.5,514L1376.49,514Z" style="fill:rgb(177,177,177);"/>
                </g>
                <g transform="matrix(4.61981,0,0,4.61981,-2607.47,-404.461)">
                    <path d="M1376.49,514C1375.12,513.996 1374,512.877 1374,511.5C1374,510.12 1375.12,509 1376.5,509L1383.52,509C1384.89,509.009 1386,510.126 1386,511.5C1386,512.88 1384.88,514 1383.5,514L1376.5,514L1376.49,514Z" style="fill:rgb(177,177,177);"/>
                </g>
                <g transform="matrix(4.61981,0,0,-4.61981,-2607.47,4708.71)">
                    <path d="M1376.49,514C1375.12,513.996 1374,512.877 1374,511.5C1374,510.12 1375.12,509 1376.5,509L1383.52,509C1384.89,509.009 1386,510.126 1386,511.5C1386,512.88 1384.88,514 1383.5,514L1376.5,514L1376.49,514Z" style="fill:rgb(177,177,177);"/>
                </g>
                <g transform="matrix(4.61981,0,0,4.61981,-2949.34,-398.036)">
                    <path d="M1377,509C1373.07,505.997 1371.36,499.538 1371,491L1380,490L1389,491C1388.64,499.538 1386.93,505.997 1383,509L1377,509Z" style="fill:rgb(177,177,177);"/>
                </g>
                <g transform="matrix(4.61981,0,0,-4.61981,-2949.34,4702.29)">
                    <path d="M1377,509C1373.07,505.997 1371.36,499.538 1371,491L1380,490L1389,491C1388.64,499.538 1386.93,505.997 1383,509L1377,509Z" style="fill:rgb(177,177,177);"/>
                </g>
                <g transform="matrix(4.61981,0,0,4.61981,-2778.4,-399.841)">
                    <path d="M1377,509C1373.07,505.997 1371.36,499.538 1371,491L1380,490L1389,491C1388.64,499.538 1386.93,505.997 1383,509L1377,509Z" style="fill:rgb(177,177,177);"/>
                </g>
                <g transform="matrix(4.61981,0,0,-4.61981,-2778.4,4704.09)">
                    <path d="M1377,509C1373.07,505.997 1371.36,499.538 1371,491L1380,490L1389,491C1388.64,499.538 1386.93,505.997 1383,509L1377,509Z" style="fill:rgb(177,177,177);"/>
                </g>
                <g transform="matrix(4.61981,0,0,4.61981,-2607.47,-404.461)">
                    <path d="M1377,509C1373.07,505.997 1371.36,499.538 1371,491L1380,490L1389,491C1388.64,499.538 1386.93,505.997 1383,509L1377,509Z" style="fill:rgb(177,177,177);"/>
                </g>
                <g transform="matrix(4.61981,0,0,-4.61981,-2607.47,4708.71)">
                    <path d="M1377,509C1373.07,505.997 1371.36,499.538 1371,491L1380,490L1389,491C1388.64,499.538 1386.93,505.997 1383,509L1377,509Z" style="fill:rgb(177,177,177);"/>
                </g>
            </g>
            <g transform="matrix(1,0,0,1,40,-194)">
                <g transform="matrix(4.61981,0,0,4.61981,-2794.57,-402.655)">
                    <circle cx="1373" cy="532" r="6" style="fill:rgb(112,112,112);stroke:rgb(72,72,72);stroke-width:0.41px;"/>
                </g>
                <g transform="matrix(4.61981,0,0,-4.61981,-2794.57,4706.91)">
                    <circle cx="1373" cy="532" r="6" style="fill:rgb(112,112,112);stroke:rgb(72,72,72);stroke-width:0.41px;"/>
                </g>
                <g transform="matrix(4.61981,0,0,4.61981,-2623.64,-411.895)">
                    <circle cx="1373" cy="532" r="6" style="fill:rgb(112,112,112);stroke:rgb(72,72,72);stroke-width:0.41px;"/>
                </g>
                <g transform="matrix(4.61981,0,0,-4.61981,-2623.64,4716.15)">
                    <circle cx="1373" cy="532" r="6" style="fill:rgb(112,112,112);stroke:rgb(72,72,72);stroke-width:0.41px;"/>
                </g>
                <g transform="matrix(4.61981,0,0,-4.61981,-2785.33,4706.91)">
                    <circle cx="1371" cy="532" r="3" style="fill:rgb(112,112,112);stroke:rgb(72,72,72);stroke-width:0.41px;"/>
                </g>
                <g transform="matrix(4.61981,0,0,-4.61981,-2614.4,4716.15)">
                    <circle cx="1371" cy="532" r="3" style="fill:rgb(112,112,112);stroke:rgb(72,72,72);stroke-width:0.41px;"/>
                </g>
                <g transform="matrix(4.61981,0,0,4.61981,-2785.33,-402.655)">
                    <circle cx="1371" cy="532" r="3" style="fill:rgb(112,112,112);stroke:rgb(72,72,72);stroke-width:0.41px;"/>
                </g>
                <g transform="matrix(4.61981,0,0,4.61981,-2614.4,-411.895)">
                    <circle cx="1371" cy="532" r="3" style="fill:rgb(112,112,112);stroke:rgb(72,72,72);stroke-width:0.41px;"/>
                </g>
                <g transform="matrix(4.61981,0,0,4.61981,-2965.51,-398.036)">
                    <circle cx="1373" cy="532" r="6" style="fill:rgb(112,112,112);stroke:rgb(72,72,72);stroke-width:0.41px;"/>
                </g>
                <g transform="matrix(4.61981,0,0,4.61981,-2956.27,-398.036)">
                    <circle cx="1371" cy="532" r="3" style="fill:rgb(112,112,112);stroke:rgb(72,72,72);stroke-width:0.41px;"/>
                </g>
                <g transform="matrix(4.61981,0,0,-4.61981,-2965.51,4702.29)">
                    <circle cx="1373" cy="532" r="6" style="fill:rgb(112,112,112);stroke:rgb(72,72,72);stroke-width:0.41px;"/>
                </g>
                <g transform="matrix(4.61981,0,0,-4.61981,-2956.27,4702.29)">
                    <circle cx="1371" cy="532" r="3" style="fill:rgb(112,112,112);stroke:rgb(72,72,72);stroke-width:0.41px;"/>
                </g>
            </g>
            <g transform="matrix(0.406712,0,0,0.599155,2851.37,1737.02)">
                <rect x="605" y="339" width="60" height="60" style="fill:none;stroke:rgb(72,72,72);stroke-width:2.03px;"/>
            </g>
            <g transform="matrix(0.406712,0,0,0.598568,2851.37,1665.43)">
                <rect x="605" y="339" width="60" height="60" style="fill:none;stroke:rgb(72,72,72);stroke-width:2.04px;"/>
            </g>
            <g transform="matrix(0.406712,0,0,0.598568,2851.37,1773.17)">
                <rect x="605" y="339" width="60" height="60" style="fill:none;stroke:rgb(72,72,72);stroke-width:2.04px;"/>
            </g>
            <g transform="matrix(0.406712,0,0,0.599155,2851.37,1701.11)">
                <rect x="605" y="339" width="60" height="60" style="fill:none;stroke:rgb(72,72,72);stroke-width:2.03px;"/>
            </g>
            <g transform="matrix(0.406712,0,0,0.598568,2851.37,1809.09)">
                <rect x="605" y="339" width="60" height="60" style="fill:none;stroke:rgb(72,72,72);stroke-width:2.04px;"/>
            </g>
            <g transform="matrix(1.10876,0,0,1.10876,-342.093,824.584)">
                <g transform="matrix(0.961637,0.00475669,0.00475669,0.99941,115.067,-14.2673)">
                    <path d="M3124.16,1006.13L3722.44,936.113" style="fill:none;stroke:rgb(75,74,74);stroke-width:1.33px;"/>
                </g>
                <path d="M3124.16,974.026L3544.99,947.333" style="fill:none;stroke:rgb(75,74,74);stroke-width:1.32px;"/>
                <path d="M3124.16,942.825L3390.82,951.5" style="fill:none;stroke:rgb(75,74,74);stroke-width:1.32px;"/>
            </g>
            <g transform="matrix(1.10876,0,0,-1.10876,-342.093,3091.67)">
                <g transform="matrix(0.961637,0.00475669,0.00475669,0.99941,115.067,-14.2673)">
                    <path d="M3124.16,1006.13L3722.44,936.113" style="fill:none;stroke:rgb(75,74,74);stroke-width:1.33px;"/>
                </g>
                <path d="M3124.16,974.026L3544.99,947.333" style="fill:none;stroke:rgb(75,74,74);stroke-width:1.32px;"/>
                <path d="M3124.16,941.374L3390.82,951.5" style="fill:none;stroke:rgb(75,74,74);stroke-width:1.32px;"/>
            </g>
            <g transform="matrix(1,0,0,1,1357,-656.11)">
                <path d="M2286.01,2635.3C2286.01,2637.18 2286.29,2638.57 2286.86,2639.49C2287.43,2640.41 2288.23,2641.12 2289.26,2641.64L2288.76,2643.02C2288.47,2642.87 2288.08,2642.8 2287.6,2642.8C2287.01,2642.8 2286.4,2642.93 2285.76,2643.18C2285.12,2643.44 2284.54,2643.77 2284.02,2644.17C2283.36,2643.84 2282.74,2643.38 2282.15,2642.77C2281.56,2642.16 2281.12,2641.4 2280.83,2640.48C2279.39,2641.25 2277.7,2641.64 2275.76,2641.64C2274.07,2641.64 2272.46,2641.31 2270.94,2640.65C2269.41,2639.99 2268.18,2639.05 2267.22,2637.84C2266.26,2636.63 2265.79,2635.19 2265.79,2633.54L2265.79,2600.16C2265.79,2597.62 2266.68,2595.64 2268.46,2594.21C2270.24,2592.78 2272.66,2592.06 2275.7,2592.06C2276.37,2592.06 2277.43,2592.13 2278.9,2592.28C2280.26,2592.46 2281.45,2592.55 2282.48,2592.55C2283.84,2592.55 2285,2592.39 2285.95,2592.06L2287.11,2594.26C2285.68,2595.29 2284.52,2596.96 2283.64,2599.28C2282.76,2601.59 2282.32,2603.94 2282.32,2606.33C2282.32,2608.53 2282.72,2610.35 2283.53,2611.78C2284.33,2613.21 2285.53,2613.93 2287.11,2613.93C2286.34,2617.31 2284.9,2619 2282.81,2619C2281.12,2619 2279.85,2618.31 2279.01,2616.93C2278.16,2615.55 2277.74,2613.71 2277.74,2611.39C2277.74,2609.74 2277.96,2607.93 2278.4,2605.97C2278.84,2604 2279.45,2602.07 2280.22,2600.16C2280.37,2599.86 2280.44,2599.53 2280.44,2599.16C2280.44,2598.36 2280.07,2597.7 2279.31,2597.21C2278.56,2596.71 2277.54,2596.47 2276.26,2596.47C2274.6,2596.47 2273.36,2596.9 2272.54,2597.76C2271.71,2598.62 2271.3,2600.05 2271.3,2602.03L2271.3,2630.46C2271.3,2634.61 2272.89,2636.68 2276.09,2636.68C2277.34,2636.68 2278.39,2636.36 2279.23,2635.72C2280.07,2635.07 2280.5,2634.26 2280.5,2633.27L2280.5,2626.82C2280.5,2625.53 2280.36,2624.6 2280.08,2624.01C2279.81,2623.42 2279.17,2622.95 2278.18,2622.58C2278.18,2621.99 2278.31,2621.5 2278.57,2621.12C2278.83,2620.73 2279.21,2620.54 2279.72,2620.54C2279.98,2620.54 2280.28,2620.6 2280.61,2620.7C2281.53,2621.04 2282.46,2621.2 2283.42,2621.2C2284.52,2621.2 2285.62,2621.02 2286.72,2620.65L2287.22,2622.03C2286.78,2622.25 2286.47,2622.49 2286.28,2622.74C2286.1,2623 2286.01,2623.37 2286.01,2623.85L2286.01,2635.3ZM2383.85,2631.5C2384.65,2632.86 2385.36,2633.87 2385.97,2634.53C2386.57,2635.19 2387.15,2635.62 2387.7,2635.83C2388.25,2636.03 2388.93,2636.13 2389.74,2636.13C2389.37,2637.71 2388.84,2638.96 2388.14,2639.88C2387.44,2640.8 2386.64,2641.25 2385.72,2641.25C2384.07,2641.25 2382.32,2639.71 2380.48,2636.63L2376.46,2629.8L2376.46,2637.07C2376.46,2637.47 2376.56,2637.8 2376.77,2638.06C2376.97,2638.32 2377.27,2638.59 2377.68,2638.89C2377.68,2639.4 2377.5,2639.78 2377.15,2640.01C2376.8,2640.25 2376.35,2640.32 2375.8,2640.21C2375.66,2640.17 2375.28,2640.09 2374.67,2639.96C2374.07,2639.83 2373.41,2639.77 2372.72,2639.77C2371.76,2639.77 2370.93,2639.93 2370.24,2640.26L2369.74,2638.89C2370.18,2638.66 2370.49,2638.43 2370.68,2638.17C2370.86,2637.91 2370.95,2637.54 2370.95,2637.07L2370.95,2604.89C2370.95,2604.49 2370.85,2604.16 2370.65,2603.9C2370.45,2603.65 2370.15,2603.37 2369.74,2603.08C2369.74,2602.64 2369.86,2602.3 2370.1,2602.06C2370.34,2601.82 2370.66,2601.7 2371.06,2601.7C2371.32,2601.7 2371.51,2601.72 2371.62,2601.75C2372.61,2601.97 2373.56,2602.09 2374.48,2602.09C2375.1,2602.09 2375.66,2602.07 2376.13,2602.03C2376.61,2601.99 2377.01,2601.96 2377.34,2601.92C2378.81,2601.77 2380.01,2601.7 2380.93,2601.7C2383.13,2601.7 2384.87,2602.43 2386.16,2603.9C2387.44,2605.37 2388.09,2607.37 2388.09,2609.91L2388.09,2620.38C2388.09,2622.8 2387.63,2624.81 2386.71,2626.41C2385.79,2628.01 2384.49,2629.12 2382.8,2629.74L2383.85,2631.5ZM2344.68,2603.08C2344.42,2603.41 2344.18,2604.03 2343.96,2604.95C2343.74,2605.98 2343.39,2606.78 2342.91,2607.35C2342.44,2607.91 2341.52,2608.2 2340.16,2608.2C2339.57,2608.2 2338.93,2608.14 2338.23,2608.03L2337.9,2608.03C2337.57,2608.03 2337.4,2608.22 2337.4,2608.59L2337.4,2637.07C2337.4,2637.47 2337.51,2637.8 2337.71,2638.06C2337.91,2638.32 2338.21,2638.59 2338.62,2638.89C2338.62,2639.4 2338.44,2639.78 2338.09,2640.01C2337.74,2640.25 2337.29,2640.32 2336.74,2640.21C2336.6,2640.17 2336.22,2640.09 2335.61,2639.96C2335.01,2639.83 2334.36,2639.77 2333.66,2639.77C2332.7,2639.77 2331.88,2639.93 2331.18,2640.26L2330.68,2638.89C2331.12,2638.66 2331.44,2638.43 2331.62,2638.17C2331.8,2637.91 2331.89,2637.54 2331.89,2637.07L2331.89,2607.21C2331.89,2606.99 2331.84,2606.81 2331.73,2606.68C2331.62,2606.56 2331.33,2606.45 2330.85,2606.38L2330.9,2606.38C2330.24,2606.31 2329.78,2606.27 2329.53,2606.27C2328.64,2606.27 2327.89,2606.45 2327.27,2606.82C2326.64,2607.19 2326.09,2607.8 2325.62,2608.64C2325.25,2608.64 2324.92,2608.26 2324.62,2607.51C2324.33,2606.76 2324.18,2605.96 2324.18,2605.12C2324.18,2604.16 2324.58,2603.36 2325.37,2602.72C2326.16,2602.08 2327.36,2601.75 2328.97,2601.75C2329.82,2601.75 2330.79,2601.87 2331.89,2602.09L2332.72,2602.25C2335.4,2602.8 2337.66,2603.08 2339.5,2603.08C2341.78,2603.08 2343.24,2602.62 2343.91,2601.7L2344.68,2603.08ZM2310.74,2603.08C2310.3,2603.3 2309.99,2603.54 2309.8,2603.79C2309.62,2604.05 2309.53,2604.42 2309.53,2604.89L2309.53,2632.16C2309.53,2634.81 2308.76,2636.82 2307.22,2638.2C2305.67,2639.57 2303.54,2640.26 2300.83,2640.26C2298.07,2640.26 2295.93,2639.56 2294.41,2638.17C2292.88,2636.77 2292.12,2634.77 2292.12,2632.16L2292.12,2624.78C2292.12,2623.17 2292.64,2621.84 2293.66,2620.82C2292.64,2620.56 2292.12,2620.01 2292.12,2619.16L2292.12,2604.89C2292.12,2604.49 2292.02,2604.16 2291.82,2603.9C2291.62,2603.65 2291.31,2603.37 2290.91,2603.08C2290.91,2602.56 2291.08,2602.19 2291.43,2601.95C2291.78,2601.71 2292.23,2601.64 2292.78,2601.75C2292.93,2601.79 2293.3,2601.87 2293.91,2602C2294.52,2602.13 2295.17,2602.2 2295.87,2602.2C2296.82,2602.2 2297.65,2602.03 2298.35,2601.7L2298.84,2603.08C2298.4,2603.3 2298.09,2603.54 2297.91,2603.79C2297.72,2604.05 2297.63,2604.42 2297.63,2604.89L2297.63,2619.16C2298.4,2619.16 2299.08,2619.33 2299.67,2619.66C2300.26,2619.99 2300.55,2620.41 2300.55,2620.93C2299.52,2620.93 2298.78,2621.32 2298.32,2622.11C2297.86,2622.9 2297.63,2624.21 2297.63,2626.05L2297.63,2631.56C2297.63,2633.17 2297.91,2634.29 2298.46,2634.92C2299.01,2635.54 2299.8,2635.86 2300.83,2635.86C2301.85,2635.86 2302.64,2635.54 2303.19,2634.92C2303.74,2634.29 2304.02,2633.17 2304.02,2631.56L2304.02,2604.89C2304.02,2604.49 2303.92,2604.16 2303.72,2603.9C2303.51,2603.65 2303.21,2603.37 2302.81,2603.08C2302.81,2602.56 2302.98,2602.19 2303.33,2601.95C2303.68,2601.71 2304.13,2601.64 2304.68,2601.75C2304.83,2601.79 2305.2,2601.87 2305.81,2602C2306.42,2602.13 2307.07,2602.2 2307.77,2602.2C2308.72,2602.2 2309.55,2602.03 2310.24,2601.7L2310.74,2603.08ZM2365.22,2637.07C2365.22,2637.47 2365.33,2637.8 2365.53,2638.06C2365.73,2638.32 2366.03,2638.59 2366.44,2638.89C2366.44,2639.4 2366.26,2639.78 2365.91,2640.01C2365.56,2640.25 2365.11,2640.32 2364.56,2640.21C2364.42,2640.17 2364.04,2640.09 2363.43,2639.96C2362.83,2639.83 2362.18,2639.77 2361.48,2639.77C2360.52,2639.77 2359.7,2639.93 2359,2640.26L2358.5,2638.89C2358.94,2638.66 2359.26,2638.43 2359.44,2638.17C2359.62,2637.91 2359.72,2637.54 2359.72,2637.07L2359.72,2622.3C2358.69,2621.75 2357.75,2621.48 2356.91,2621.48C2356.06,2621.48 2355.39,2621.71 2354.89,2622.16C2354.4,2622.62 2354.15,2623.24 2354.15,2624.01C2354.15,2624.64 2354.36,2625.18 2354.78,2625.64C2355.21,2626.1 2355.79,2626.32 2356.52,2626.32C2356.52,2626.91 2356.23,2627.36 2355.64,2627.67C2355.05,2627.99 2354.37,2628.11 2353.6,2628.03L2353.6,2637.07C2353.6,2637.47 2353.7,2637.8 2353.9,2638.06C2354.11,2638.32 2354.41,2638.59 2354.81,2638.89C2354.81,2639.4 2354.64,2639.78 2354.29,2640.01C2353.94,2640.25 2353.49,2640.32 2352.94,2640.21C2352.79,2640.17 2352.42,2640.09 2351.81,2639.96C2351.2,2639.83 2350.55,2639.77 2349.85,2639.77C2348.9,2639.77 2348.07,2639.93 2347.38,2640.26L2346.88,2638.89C2347.32,2638.66 2347.63,2638.43 2347.82,2638.17C2348,2637.91 2348.09,2637.54 2348.09,2637.07L2348.09,2604.89C2348.09,2604.49 2347.99,2604.16 2347.79,2603.9C2347.59,2603.65 2347.28,2603.37 2346.88,2603.08C2346.88,2602.64 2347,2602.3 2347.24,2602.06C2347.48,2601.82 2347.8,2601.7 2348.2,2601.7C2348.46,2601.7 2348.64,2601.72 2348.75,2601.75C2349.74,2601.97 2350.7,2602.09 2351.62,2602.09C2352.24,2602.09 2352.79,2602.07 2353.27,2602.03C2353.75,2601.99 2354.15,2601.96 2354.48,2601.92C2355.95,2601.77 2357.14,2601.7 2358.06,2601.7C2360.27,2601.7 2362.01,2602.42 2363.3,2603.85C2364.58,2605.28 2365.22,2607.26 2365.22,2609.8L2365.22,2637.07ZM2320.77,2637.07C2320.77,2637.47 2320.87,2637.8 2321.07,2638.06C2321.27,2638.32 2321.58,2638.59 2321.98,2638.89C2321.98,2639.4 2321.8,2639.78 2321.46,2640.01C2321.11,2640.25 2320.66,2640.32 2320.11,2640.21C2319.96,2640.17 2319.58,2640.09 2318.98,2639.96C2318.37,2639.83 2317.72,2639.77 2317.02,2639.77C2316.07,2639.77 2315.24,2639.93 2314.54,2640.26L2314.05,2638.89C2314.49,2638.66 2314.8,2638.43 2314.98,2638.17C2315.17,2637.91 2315.26,2637.54 2315.26,2637.07L2315.26,2604.89C2315.26,2604.49 2315.16,2604.16 2314.95,2603.9C2314.75,2603.65 2314.45,2603.37 2314.05,2603.08C2314.05,2602.56 2314.22,2602.19 2314.57,2601.95C2314.92,2601.71 2315.37,2601.64 2315.92,2601.75C2316.07,2601.79 2316.44,2601.87 2317.05,2602C2317.65,2602.13 2318.31,2602.2 2319,2602.2C2319.96,2602.2 2320.78,2602.03 2321.48,2601.7L2321.98,2603.08C2321.54,2603.3 2321.23,2603.54 2321.04,2603.79C2320.86,2604.05 2320.77,2604.42 2320.77,2604.89L2320.77,2637.07ZM2437.56,2619.45C2439.8,2616.96 2442.5,2615.72 2445.65,2615.72C2448.79,2615.72 2451.44,2616.84 2453.6,2619.07C2455.75,2621.3 2456.83,2623.99 2456.83,2627.14C2456.83,2630.28 2455.73,2632.98 2453.54,2635.23C2451.34,2637.47 2448.69,2638.6 2445.59,2638.6C2442.48,2638.6 2439.8,2637.25 2437.56,2634.55L2437.56,2637.88L2434.35,2637.88L2434.35,2608.15L2437.56,2608.15L2437.56,2619.45ZM2422.73,2637.88L2408.34,2637.88L2408.34,2608.86L2411.79,2608.86L2411.79,2634.59L2422.73,2634.59L2422.73,2637.88ZM2429.11,2637.88L2425.82,2637.88L2425.82,2616.27L2429.11,2616.27L2429.11,2637.88ZM2445.45,2635.43C2447.7,2635.43 2449.61,2634.59 2451.18,2632.93C2452.75,2631.26 2453.54,2629.31 2453.54,2627.08C2453.54,2624.85 2452.77,2622.89 2451.24,2621.23C2449.7,2619.57 2447.79,2618.73 2445.49,2618.73C2443.19,2618.73 2441.26,2619.51 2439.72,2621.07C2438.17,2622.63 2437.4,2624.59 2437.4,2626.96C2437.4,2629.33 2438.18,2631.33 2439.74,2632.97C2441.3,2634.61 2443.2,2635.43 2445.45,2635.43ZM2376.46,2606.11L2376.46,2619.22C2377.23,2619.14 2377.91,2619.26 2378.5,2619.58C2379.09,2619.89 2379.38,2620.34 2379.38,2620.93C2378.65,2620.93 2378.07,2621.16 2377.65,2621.61C2377.22,2622.07 2377.01,2622.62 2377.01,2623.24C2377.01,2623.97 2377.25,2624.58 2377.73,2625.06C2378.21,2625.53 2378.81,2625.77 2379.55,2625.77C2380.5,2625.77 2381.25,2625.34 2381.78,2624.48C2382.31,2623.62 2382.58,2622.03 2382.58,2619.71L2382.58,2609.91C2382.58,2608.55 2382.32,2607.58 2381.81,2606.99C2381.29,2606.4 2380.54,2606.11 2379.55,2606.11L2376.46,2606.11ZM2353.6,2617.68C2354.48,2617.24 2355.45,2617.01 2356.52,2617.01C2357.59,2617.01 2358.65,2617.25 2359.72,2617.73L2359.72,2609.91C2359.72,2608.55 2359.46,2607.58 2358.94,2606.99C2358.43,2606.4 2357.68,2606.11 2356.68,2606.11L2353.6,2606.11L2353.6,2617.68ZM2427.45,2608.15C2428.16,2608.15 2428.76,2608.39 2429.25,2608.88C2429.74,2609.37 2429.99,2609.96 2429.99,2610.66C2429.99,2611.36 2429.74,2611.96 2429.25,2612.45C2428.76,2612.94 2428.17,2613.18 2427.47,2613.18C2426.77,2613.18 2426.17,2612.93 2425.68,2612.43C2425.19,2611.93 2424.95,2611.34 2424.95,2610.66C2424.95,2609.99 2425.19,2609.4 2425.68,2608.9C2426.17,2608.4 2426.76,2608.15 2427.45,2608.15Z" style="fill:rgb(180,180,180);fill-rule:nonzero;"/>
            </g>
            <g transform="matrix(1.83337,0,0,1.83337,-2745.39,-262.115)">
                <circle cx="2803" cy="1211" r="5" style="stroke:black;stroke-width:1.25px;"/>
            </g>
            <g transform="matrix(1.83337,0,0,1.83337,-3002.63,-262.115)">
                <circle cx="2803" cy="1211" r="5" style="stroke:black;stroke-width:1.25px;"/>
            </g>
            <g transform="matrix(1.83337,0,0,1.83337,-3237.68,-262.115)">
                <circle cx="2803" cy="1211" r="5" style="stroke:black;stroke-width:1.25px;"/>
            </g>
            <g transform="matrix(1.83337,0,0,1.83337,-3530.82,-306.115)">
                <circle cx="2803" cy="1211" r="5" style="stroke:black;stroke-width:1.25px;"/>
            </g>
            <g transform="matrix(1.83337,0,0,1.83337,-3530.82,-214.115)">
                <circle cx="2803" cy="1211" r="5" style="stroke:black;stroke-width:1.25px;"/>
            </g>
            <g transform="matrix(1.83337,0,0,1.83337,-3782.08,-262.115)">
                <circle cx="2803" cy="1211" r="5" style="stroke:black;stroke-width:1.25px;"/>
            </g>
            <g transform="matrix(1.83337,0,0,1.83337,-3931.76,-262.115)">
                <circle cx="2803" cy="1211" r="5" style="stroke:black;stroke-width:1.25px;"/>
            </g>
            <g transform="matrix(1,0,0,1,40,-194)">
                <path d="M600.103,1981.29L600.103,2329L778.379,2329C779.901,2329 781.136,2327.77 781.136,2326.24L781.136,1984.05C781.136,1982.53 779.901,1981.29 778.379,1981.29L600.103,1981.29Z" style="fill:rgb(217,217,217);"/>
            </g>
            <g transform="matrix(1,0,0,1,40,-194)">
                <g transform="matrix(3.17491,0.854944,-0.848441,3.19925,-1168.56,-221.967)">
                    <path d="M734.25,504.009L734.25,510.991C732.435,510.863 731,509.348 731,507.5C731,505.652 732.435,504.137 734.25,504.009ZM734.75,504.009C736.565,504.137 738,505.652 738,507.5C738,509.348 736.565,510.863 734.75,510.991L734.75,504.009Z" style="fill:none;stroke:rgb(173,173,173);stroke-width:0.57px;"/>
                </g>
                <g transform="matrix(1.09606,3.1219,-3.09816,1.10446,1500.08,-777.583)">
                    <path d="M734.25,504.009L734.25,510.991C732.435,510.863 731,509.348 731,507.5C731,505.652 732.435,504.137 734.25,504.009ZM734.75,504.009C736.565,504.137 738,505.652 738,507.5C738,509.348 736.565,510.863 734.75,510.991L734.75,504.009Z" style="fill:none;stroke:rgb(173,173,173);stroke-width:0.57px;"/>
                </g>
                <g transform="matrix(2.31539,-2.35002,2.33215,2.33313,-2151.39,2668.99)">
                    <path d="M734.25,504.009L734.25,510.991C732.435,510.863 731,509.348 731,507.5C731,505.652 732.435,504.137 734.25,504.009ZM734.75,504.009C736.565,504.137 738,505.652 738,507.5C738,509.348 736.565,510.863 734.75,510.991L734.75,504.009Z" style="fill:none;stroke:rgb(173,173,173);stroke-width:0.57px;"/>
                </g>
                <g transform="matrix(3.17491,0.854944,-0.848441,3.19925,-1168.56,-73.6112)">
                    <path d="M734.25,504.009L734.25,510.991C732.435,510.863 731,509.348 731,507.5C731,505.652 732.435,504.137 734.25,504.009ZM734.75,504.009C736.565,504.137 738,505.652 738,507.5C738,509.348 736.565,510.863 734.75,510.991L734.75,504.009Z" style="fill:none;stroke:rgb(173,173,173);stroke-width:0.57px;"/>
                </g>
                <g transform="matrix(-1.34753,3.02032,-2.99735,-1.35785,3243.74,699.646)">
                    <path d="M734.25,504.009L734.25,510.991C732.435,510.863 731,509.348 731,507.5C731,505.652 732.435,504.137 734.25,504.009ZM734.75,504.009C736.565,504.137 738,505.652 738,507.5C738,509.348 736.565,510.863 734.75,510.991L734.75,504.009Z" style="fill:none;stroke:rgb(173,173,173);stroke-width:0.57px;"/>
                </g>
                <g transform="matrix(2.77658,-1.77146,1.75799,2.79786,-2198.75,2161.18)">
                    <path d="M734.25,504.009L734.25,510.991C732.435,510.863 731,509.348 731,507.5C731,505.652 732.435,504.137 734.25,504.009ZM734.75,504.009C736.565,504.137 738,505.652 738,507.5C738,509.348 736.565,510.863 734.75,510.991L734.75,504.009Z" style="fill:none;stroke:rgb(173,173,173);stroke-width:0.57px;"/>
                </g>
            </g>
            <g transform="matrix(1.20674,0,0,1.29825,-646.072,654.542)">
                <path d="M1065.82,1061.38L3102.15,1045.6L3102.15,962.612L1065.82,946.836" style="fill:none;stroke:rgb(105,105,105);stroke-width:0.5px;"/>
            </g>
            <g transform="matrix(1.20674,0,0,1.29825,-646.072,654.542)">
                <path d="M1065.82,1023.2L3102.15,1017.94L3102.15,990.275L1065.82,985.017" style="fill:none;stroke:rgb(105,105,105);stroke-width:0.5px;"/>
            </g>
            <g transform="matrix(1.20674,0,0,1.29825,-646.072,655.541)">
                <path d="M1065.82,1098.79L3102.15,1072.5L3102.15,934.178L1065.82,907.885" style="fill:none;stroke:rgb(105,105,105);stroke-width:0.5px;"/>
            </g>
            <g transform="matrix(1.83337,0,0,1.83337,-2455.16,-262.115)">
                <circle cx="2803" cy="1211" r="5"/>
            </g>
            <g transform="matrix(0.883414,0,0,0.883414,466.109,227.887)">
                <text x="3388px" y="1603px" style="font-family:'Futura-Bold', 'Futura', sans-serif;font-weight:700;font-size:23.583px;fill:rgb(65,65,65);">E</text>
            </g>
            <g transform="matrix(0.883414,0,0,0.883414,466.109,878.349)">
                <text x="3388px" y="1603px" style="font-family:'Futura-Bold', 'Futura', sans-serif;font-weight:700;font-size:23.583px;fill:rgb(65,65,65);">G</text>
            </g>
            <g transform="matrix(0.883414,0,0,0.883414,633.292,229.887)">
                <text x="3388px" y="1603px" style="font-family:'Futura-Bold', 'Futura', sans-serif;font-weight:700;font-size:23.583px;fill:rgb(65,65,65);">A</text>
            </g>
            <g transform="matrix(0.883414,0,0,0.883414,638.292,878.349)">
                <text x="3388px" y="1603px" style="font-family:'Futura-Bold', 'Futura', sans-serif;font-weight:700;font-size:23.583px;fill:rgb(65,65,65);">B</text>
            </g>
            <g transform="matrix(0.883414,0,0,0.883414,808.475,227.887)">
                <text x="3388px" y="1603px" style="font-family:'Futura-Bold', 'Futura', sans-serif;font-weight:700;font-size:23.583px;fill:rgb(65,65,65);">D</text>
            </g>
            <g transform="matrix(0.883414,0,0,0.883414,808.475,878.349)">
                <text x="3388px" y="1603px" style="font-family:'Futura-Bold', 'Futura', sans-serif;font-weight:700;font-size:23.583px;fill:rgb(65,65,65);">E</text>
            </g>
        </g>
    </g>
    <defs>
        <linearGradient id="_Linear1" x1="0" y1="0" x2="1" y2="0" gradientUnits="userSpaceOnUse" gradientTransform="matrix(7.23217e-14,1181.1,-1181.1,7.23217e-14,813.342,1561.57)"><stop offset="0" style="stop-color:rgb(219,219,219);stop-opacity:1"/><stop offset="1" style="stop-color:rgb(150,150,150);stop-opacity:1"/></linearGradient>
    </defs>
</svg>
