<?xml version="1.0" encoding="UTF-8" standalone="no"?><!DOCTYPE svg PUBLIC "-//W3C//DTD SVG 1.1//EN" "http://www.w3.org/Graphics/SVG/1.1/DTD/svg11.dtd"><svg width="100%" height="100%" viewBox="0 0 3662 414" version="1.1" xmlns="http://www.w3.org/2000/svg" xmlns:xlink="http://www.w3.org/1999/xlink" xml:space="preserve" xmlns:serif="http://www.serif.com/" style="fill-rule:evenodd;clip-rule:evenodd;stroke-linecap:round;stroke-linejoin:round;stroke-miterlimit:1.5;"><g><path d="M1640.61,32.455c-0,4.889 -3.969,8.858 -8.858,8.858c-4.889,-0 -8.859,-3.969 -8.859,-8.858c0,-4.889 3.97,-8.859 8.859,-8.859c4.889,0 8.858,3.97 8.858,8.859Z" style="fill:#737373;"/><path d="M1611.36,32.455c0,4.889 -3.969,8.858 -8.858,8.858c-4.889,-0 -8.858,-3.969 -8.858,-8.858c-0,-4.889 3.969,-8.859 8.858,-8.859c4.889,0 8.858,3.97 8.858,8.859Z" style="fill:#737373;"/></g><circle cx="369.119" cy="33.077" r="8.75" style="fill:#737373;"/><circle cx="2082.55" cy="32.563" r="8.75" style="fill:#737373;"/><circle cx="628.44" cy="33.077" r="8.75" style="fill:#737373;"/><circle cx="2406.96" cy="32.563" r="8.75" style="fill:#737373;"/><circle cx="898.454" cy="33.077" r="8.75" style="fill:#737373;"/><circle cx="2748.76" cy="32.563" r="8.75" style="fill:#737373;"/><circle cx="1178.82" cy="33.077" r="8.75" style="fill:#737373;"/><circle cx="3117.59" cy="32.563" r="8.75" style="fill:#737373;"/><path d="M3602.36,137.866l-3543.31,0" style="fill:none;stroke:#808080;stroke-width:2.5px;"/><path d="M3602.36,196.837l-3543.31,-0" style="fill:none;stroke:#808080;stroke-width:2.5px;"/><path d="M59.055,314.778l3543.31,-0" style="fill:none;stroke:#808080;stroke-width:2.5px;"/><path d="M3602.36,255.807l-3543.31,0" style="fill:none;stroke:#808080;stroke-width:2.5px;"/><g><path d="M3212.21,78.895l0,294.853" style="fill:none;stroke:#808080;stroke-width:2.5px;"/><path d="M3405.32,373.748l0,-294.853" style="fill:none;stroke:#808080;stroke-width:2.5px;"/><path d="M3022.97,78.895l-0,294.853" style="fill:none;stroke:#808080;stroke-width:2.5px;"/><path d="M2837.59,78.895l-0,294.853" style="fill:none;stroke:#808080;stroke-width:2.5px;"/><path d="M2659.93,78.895l0,294.853" style="fill:none;stroke:#808080;stroke-width:2.5px;"/><path d="M2490,78.895l0,294.853" style="fill:none;stroke:#808080;stroke-width:2.5px;"/><path d="M2323.93,78.895l-0,294.853" style="fill:none;stroke:#808080;stroke-width:2.5px;"/><path d="M2161.72,78.895l-0,294.853" style="fill:none;stroke:#808080;stroke-width:2.5px;"/><path d="M2003.38,78.895l-0,294.853" style="fill:none;stroke:#808080;stroke-width:2.5px;"/><path d="M1847.6,78.895l-0,294.853" style="fill:none;stroke:#808080;stroke-width:2.5px;"/><path d="M1694.41,78.895l-0,294.853" style="fill:none;stroke:#808080;stroke-width:2.5px;"/><path d="M1543.79,78.895l0,294.853" style="fill:none;stroke:#808080;stroke-width:2.5px;"/><path d="M1395.74,79.318l0,294.853" style="fill:none;stroke:#808080;stroke-width:2.5px;"/><path d="M1250.27,79.318l-0,294.853" style="fill:none;stroke:#808080;stroke-width:2.5px;"/><path d="M1107.37,79.318l0,294.853" style="fill:none;stroke:#808080;stroke-width:2.5px;"/><path d="M967.328,79.318l0,294.853" style="fill:none;stroke:#808080;stroke-width:2.5px;"/><path d="M694.587,79.318l0,294.853" style="fill:none;stroke:#808080;stroke-width:2.5px;"/><path d="M562.294,79.318l-0,294.853" style="fill:none;stroke:#808080;stroke-width:2.5px;"/><path d="M432.646,79.318l0,294.853" style="fill:none;stroke:#808080;stroke-width:2.5px;"/><path d="M305.592,79.318l-0,294.853" style="fill:none;stroke:#808080;stroke-width:2.5px;"/><path d="M181.078,79.318l0,294.853" style="fill:none;stroke:#808080;stroke-width:2.5px;"/><path d="M829.58,79.318l0,294.853" style="fill:none;stroke:#808080;stroke-width:2.5px;"/></g><path d="M3602.36,84.702c0,-3.205 -2.602,-5.807 -5.807,-5.807l-3531.69,0c-3.205,0 -5.807,2.602 -5.807,5.807l0,283.24c0,3.204 2.602,5.806 5.807,5.806l3531.69,0c3.205,0 5.807,-2.602 5.807,-5.806l0,-283.24Z" style="fill:none;stroke:#808080;stroke-width:2.5px;"/><rect x="0" y="0" width="3661.42" height="413.784" style="fill:none;"/></svg>